<?xml version="1.0" encoding="utf-8"?>
<!-- Generator: Adobe Illustrator 25.2.0, SVG Export Plug-In . SVG Version: 6.00 Build 0)  -->
<svg version="1.1" id="Ebene_1" xmlns="http://www.w3.org/2000/svg" xmlns:xlink="http://www.w3.org/1999/xlink" x="0px" y="0px"
	 viewBox="0 0 425.03 425.03" style="enable-background:new 0 0 425.03 425.03;" xml:space="preserve">
<style type="text/css">
	.st0{clip-path:url(#SVGID_2_);fill:none;stroke:#2B363D;stroke-width:5;stroke-miterlimit:10;}
	.st1{clip-path:url(#SVGID_2_);}
</style>
<g>
	<defs>
		<rect id="SVGID_1_" x="0" width="425.03" height="425.03"/>
	</defs>
	<clipPath id="SVGID_2_">
		<use xlink:href="#SVGID_1_"  style="overflow:visible;"/>
	</clipPath>
	<path class="st0" d="M67.35,2.5h290.33c35.67,0,64.85,29.18,64.85,64.85v290.33c0,35.67-29.18,64.85-64.85,64.85H67.35
		c-35.67,0-64.85-29.18-64.85-64.85V67.35C2.5,31.68,31.68,2.5,67.35,2.5z"/>
	<path class="st1" d="M240.25,314.22c-27.11,0-52.91-10.23-72.64-28.81c-1.58-1.48-1.65-3.97-0.17-5.55
		c1.49-1.58,3.97-1.65,5.55-0.17c18.27,17.2,42.16,26.67,67.26,26.67c54.12,0,98.15-44.03,98.15-98.15
		c0-54.12-44.03-98.15-98.15-98.15c-29.61,0-57.34,13.17-76.08,36.14c-1.37,1.68-3.84,1.93-5.52,0.56
		c-1.68-1.37-1.93-3.84-0.56-5.52c20.24-24.8,50.19-39.02,82.17-39.02c58.45,0,106,47.55,106,106S298.7,314.22,240.25,314.22"/>
	<path class="st1" d="M170.3,208.22c0,5.06-4.1,9.16-9.16,9.16s-9.16-4.1-9.16-9.16c0-5.06,4.1-9.16,9.16-9.16
		S170.3,203.16,170.3,208.22"/>
	<path class="st1" d="M328.53,208.22c0,5.06-4.1,9.16-9.16,9.16s-9.16-4.1-9.16-9.16c0-5.06,4.1-9.16,9.16-9.16
		S328.53,203.16,328.53,208.22"/>
	<path class="st1" d="M240.25,278.17c5.06,0,9.16,4.1,9.16,9.16s-4.1,9.16-9.16,9.16c-5.06,0-9.16-4.1-9.16-9.16
		S235.19,278.17,240.25,278.17"/>
	<path class="st1" d="M240.25,119.94c5.06,0,9.16,4.1,9.16,9.16s-4.1,9.16-9.16,9.16c-5.06,0-9.16-4.1-9.16-9.16
		S235.19,119.94,240.25,119.94"/>
	<path class="st1" d="M291.18,212.14h-50.93c-2.17,0-3.93-1.76-3.93-3.92v-31.31c0-2.17,1.76-3.92,3.93-3.92
		c2.17,0,3.92,1.76,3.92,3.92v27.39h47.01c2.17,0,3.92,1.76,3.92,3.92C295.11,210.39,293.35,212.14,291.18,212.14"/>
	<path class="st1" d="M170.3,170.65h-7.85c-2.17,0-3.92-1.76-3.92-3.92c0-2.17,1.76-3.92,3.92-3.92h7.85c2.17,0,3.92,1.76,3.92,3.92
		C174.22,168.89,172.46,170.65,170.3,170.65"/>
	<path class="st1" d="M116.11,170.65h-15.45c-2.17,0-3.92-1.76-3.92-3.92c0-2.17,1.76-3.92,3.92-3.92h15.45
		c2.17,0,3.92,1.76,3.92,3.92C120.04,168.89,118.28,170.65,116.11,170.65 M147,170.65h-15.45c-2.17,0-3.92-1.76-3.92-3.92
		c0-2.17,1.76-3.92,3.92-3.92H147c2.17,0,3.92,1.76,3.92,3.92C150.93,168.89,149.17,170.65,147,170.65"/>
	<path class="st1" d="M85.22,170.65h-7.85c-2.17,0-3.92-1.76-3.92-3.92c0-2.17,1.76-3.92,3.92-3.92h7.85c2.17,0,3.92,1.76,3.92,3.92
		C89.15,168.89,87.39,170.65,85.22,170.65"/>
	<path class="st1" d="M138.4,212.14h-7.85c-2.17,0-3.92-1.76-3.92-3.92c0-2.17,1.76-3.92,3.92-3.92h7.85c2.17,0,3.92,1.76,3.92,3.92
		C142.32,210.39,140.57,212.14,138.4,212.14"/>
	<path class="st1" d="M84.22,212.14H68.77c-2.17,0-3.92-1.76-3.92-3.92c0-2.17,1.76-3.92,3.92-3.92h15.45
		c2.17,0,3.92,1.76,3.92,3.92C88.14,210.39,86.38,212.14,84.22,212.14 M115.11,212.14H99.66c-2.17,0-3.92-1.76-3.92-3.92
		c0-2.17,1.76-3.92,3.92-3.92h15.45c2.17,0,3.92,1.76,3.92,3.92C119.03,210.39,117.27,212.14,115.11,212.14"/>
	<path class="st1" d="M53.33,212.14h-7.85c-2.17,0-3.92-1.76-3.92-3.92c0-2.17,1.76-3.92,3.92-3.92h7.85c2.17,0,3.92,1.76,3.92,3.92
		C57.25,210.39,55.49,212.14,53.33,212.14"/>
	<path class="st1" d="M170.3,253.63h-7.85c-2.17,0-3.92-1.76-3.92-3.92c0-2.17,1.76-3.92,3.92-3.92h7.85c2.17,0,3.92,1.76,3.92,3.92
		C174.22,251.88,172.46,253.63,170.3,253.63"/>
	<path class="st1" d="M116.11,253.63h-15.45c-2.17,0-3.92-1.76-3.92-3.92c0-2.17,1.76-3.92,3.92-3.92h15.45
		c2.17,0,3.92,1.76,3.92,3.92C120.04,251.88,118.28,253.63,116.11,253.63 M147,253.63h-15.45c-2.17,0-3.92-1.76-3.92-3.92
		c0-2.17,1.76-3.92,3.92-3.92H147c2.17,0,3.92,1.76,3.92,3.92C150.93,251.88,149.17,253.63,147,253.63"/>
	<path class="st1" d="M85.22,253.63h-7.85c-2.17,0-3.92-1.76-3.92-3.92c0-2.17,1.76-3.92,3.92-3.92h7.85c2.17,0,3.92,1.76,3.92,3.92
		C89.15,251.88,87.39,253.63,85.22,253.63"/>
</g>
</svg>
