<?xml version="1.0" encoding="utf-8"?>
<!-- Generator: Adobe Illustrator 26.0.2, SVG Export Plug-In . SVG Version: 6.00 Build 0)  -->
<svg version="1.1" id="Ebene_1" xmlns="http://www.w3.org/2000/svg" xmlns:xlink="http://www.w3.org/1999/xlink" x="0px" y="0px"
	 viewBox="0 0 828 199.5" style="enable-background:new 0 0 828 199.5;" xml:space="preserve">
<style type="text/css">
	.st0{clip-path:url(#SVGID_00000096764141588786207810000012740309477556953764_);}
	.st1{filter:url(#Adobe_OpacityMaskFilter);}
	.st2{clip-path:url(#SVGID_00000077323116273518745340000004097276749731860370_);}
	
		.st3{clip-path:url(#SVGID_00000077323116273518745340000004097276749731860370_);mask:url(#SVGID_00000032619504868906039460000011167540749404841649_);}
	.st4{opacity:0.75;clip-path:url(#SVGID_00000037669516799460328190000002827968818003024805_);}
	.st5{clip-path:url(#SVGID_00000077323116273518745340000004097276749731860370_);fill:#44A9BB;}
	.st6{clip-path:url(#SVGID_00000108271543944719034670000016289218825767960207_);}
	.st7{fill:#FFFFFF;}
	.st8{font-family:'UnicaOne-Regular';}
	.st9{font-size:29.3182px;}
	.st10{fill:none;stroke:#FFFFFF;stroke-width:0.44;stroke-miterlimit:5.219;}
	.st11{clip-path:url(#SVGID_00000108271543944719034670000016289218825767960207_);fill:#FFFFFF;}
</style>
<g>
	<defs>
		<rect id="SVGID_1_" width="828" height="199.5"/>
	</defs>
	<clipPath id="SVGID_00000045605684004651026740000012843284293902811049_">
		<use xlink:href="#SVGID_1_"  style="overflow:visible;"/>
	</clipPath>
	<g style="clip-path:url(#SVGID_00000045605684004651026740000012843284293902811049_);">
		<defs>
			<rect id="SVGID_00000031906832454803275950000015812269154244081313_" width="828" height="199.5"/>
		</defs>
		<clipPath id="SVGID_00000166651318389911669140000001214192899212935606_">
			<use xlink:href="#SVGID_00000031906832454803275950000015812269154244081313_"  style="overflow:visible;"/>
		</clipPath>
		<defs>
			<filter id="Adobe_OpacityMaskFilter" filterUnits="userSpaceOnUse" x="-15" y="9.3" width="817" height="577">
				<feColorMatrix  type="matrix" values="1 0 0 0 0  0 1 0 0 0  0 0 1 0 0  0 0 0 1 0"/>
			</filter>
		</defs>
		
			<mask maskUnits="userSpaceOnUse" x="-15" y="9.3" width="817" height="577" id="SVGID_00000086689699549343498760000003303698329579825829_">
			<g class="st1">
				<g>
					<defs>
						<rect id="SVGID_00000171690765173025602740000005560830934062239894_" x="-43.3" y="0.2" width="873.6" height="589.4"/>
					</defs>
					
						<clipPath id="SVGID_00000084514830271949413820000016939910381511771024_" style="clip-path:url(#SVGID_00000166651318389911669140000001214192899212935606_);">
						<use xlink:href="#SVGID_00000171690765173025602740000005560830934062239894_"  style="overflow:visible;"/>
					</clipPath>
					<g style="clip-path:url(#SVGID_00000084514830271949413820000016939910381511771024_);">
						
							<image style="overflow:visible;" width="1820" height="1228" xlink:href="5D2F757F3BADD63D.jpg"  transform="matrix(0.48 0 0 0.48 -43.3328 0.2236)">
						</image>
					</g>
				</g>
			</g>
		</mask>
		
			<g style="clip-path:url(#SVGID_00000166651318389911669140000001214192899212935606_);mask:url(#SVGID_00000086689699549343498760000003303698329579825829_);">
			<g>
				<defs>
					<rect id="SVGID_00000162323430378388992970000017582509620907659443_" x="-15" y="9.3" width="817" height="577"/>
				</defs>
				<clipPath id="SVGID_00000173153484802899094560000001380610784588831421_">
					<use xlink:href="#SVGID_00000162323430378388992970000017582509620907659443_"  style="overflow:visible;"/>
				</clipPath>
				
					<rect x="-15" y="9.3" style="opacity:0.75;clip-path:url(#SVGID_00000173153484802899094560000001380610784588831421_);" width="817" height="577"/>
			</g>
		</g>
		<path style="clip-path:url(#SVGID_00000166651318389911669140000001214192899212935606_);fill:#44A9BB;" d="M-1.3,22.3
			c0,0,262.4,160.9,796,206.3l-1.2,353.3l-802.2-28l0.3-536.3L-1.3,22.3z"/>
	</g>
	<g style="clip-path:url(#SVGID_00000045605684004651026740000012843284293902811049_);">
		<defs>
			<rect id="SVGID_00000150098104994361529350000004185292427520294553_" width="828" height="199.5"/>
		</defs>
		<clipPath id="SVGID_00000019663189365349409190000002071090303224345500_">
			<use xlink:href="#SVGID_00000150098104994361529350000004185292427520294553_"  style="overflow:visible;"/>
		</clipPath>
		<g style="clip-path:url(#SVGID_00000019663189365349409190000002071090303224345500_);">
			<text transform="matrix(1 0 0 1 44.6055 184.4521)" class="st7 st8 st9">F</text>
		</g>
		<g style="clip-path:url(#SVGID_00000019663189365349409190000002071090303224345500_);">
			<text transform="matrix(1 0 0 1 44.6055 184.4521)" class="st10 st8 st9">F</text>
		</g>
		<g style="clip-path:url(#SVGID_00000019663189365349409190000002071090303224345500_);">
			<text transform="matrix(1 0 0 1 56.7725 184.4521)" class="st7 st8 st9">I</text>
		</g>
		<g style="clip-path:url(#SVGID_00000019663189365349409190000002071090303224345500_);">
			<text transform="matrix(1 0 0 1 56.7725 184.4521)" class="st10 st8 st9">I</text>
		</g>
		<g style="clip-path:url(#SVGID_00000019663189365349409190000002071090303224345500_);">
			<text transform="matrix(1 0 0 1 65.8613 184.4521)" class="st7 st8 st9">T</text>
		</g>
		<g style="clip-path:url(#SVGID_00000019663189365349409190000002071090303224345500_);">
			<text transform="matrix(1 0 0 1 65.8613 184.4521)" class="st10 st8 st9">T</text>
		</g>
		<g style="clip-path:url(#SVGID_00000019663189365349409190000002071090303224345500_);">
			<text transform="matrix(1 0 0 1 77.2954 184.4521)" class="st7 st8 st9"> </text>
		</g>
		<g style="clip-path:url(#SVGID_00000019663189365349409190000002071090303224345500_);">
			<text transform="matrix(1 0 0 1 77.2954 184.4521)" class="st10 st8 st9"> </text>
		</g>
		<g style="clip-path:url(#SVGID_00000019663189365349409190000002071090303224345500_);">
			<text transform="matrix(1 0 0 1 84.0381 184.4521)" class="st7 st8 st9">S</text>
		</g>
		<g style="clip-path:url(#SVGID_00000019663189365349409190000002071090303224345500_);">
			<text transform="matrix(1 0 0 1 84.0381 184.4521)" class="st10 st8 st9">S</text>
		</g>
		<g style="clip-path:url(#SVGID_00000019663189365349409190000002071090303224345500_);">
			<text transform="matrix(1 0 0 1 98.6387 184.4521)" class="st7 st8 st9">T</text>
		</g>
		<g style="clip-path:url(#SVGID_00000019663189365349409190000002071090303224345500_);">
			<text transform="matrix(1 0 0 1 98.6387 184.4521)" class="st10 st8 st9">T</text>
		</g>
		<g style="clip-path:url(#SVGID_00000019663189365349409190000002071090303224345500_);">
			<text transform="matrix(1 0 0 1 110.0728 184.4521)" class="st7 st8 st9">Y</text>
		</g>
		<g style="clip-path:url(#SVGID_00000019663189365349409190000002071090303224345500_);">
			<text transform="matrix(1 0 0 1 110.0728 184.4521)" class="st10 st8 st9">Y</text>
		</g>
		<g style="clip-path:url(#SVGID_00000019663189365349409190000002071090303224345500_);">
			<text transform="matrix(1 0 0 1 123.2661 184.4521)" class="st7 st8 st9">L</text>
		</g>
		<g style="clip-path:url(#SVGID_00000019663189365349409190000002071090303224345500_);">
			<text transform="matrix(1 0 0 1 123.2661 184.4521)" class="st10 st8 st9">L</text>
		</g>
		<g style="clip-path:url(#SVGID_00000019663189365349409190000002071090303224345500_);">
			<text transform="matrix(1 0 0 1 134.2017 184.4521)" class="st7 st8 st9">E</text>
		</g>
		<g style="clip-path:url(#SVGID_00000019663189365349409190000002071090303224345500_);">
			<text transform="matrix(1 0 0 1 134.2017 184.4521)" class="st10 st8 st9">E</text>
		</g>
		<path style="clip-path:url(#SVGID_00000019663189365349409190000002071090303224345500_);fill:#FFFFFF;" d="M122.1,145.1
			c6.1,2.5,12.5-2.9,13.4-8.9C132.3,142.7,127.6,145,122.1,145.1 M115.9,141.5c0.1-4.2,0.6-7.6,2-10.1l-1.9-1.2
			C113.6,132.3,113.7,135.9,115.9,141.5 M128.9,126.5c1.3-0.4,3.5-2,3.5-2s-1.3-0.8-3-1c-0.6-0.1-1.3,0.2-2,0.5
			c0-0.7,0.2-1.4,0.7-2.3l-1.6-0.9c-0.8,1.3-1,2.2-1,3.2c-0.4-0.6-1-1.2-1.7-1.4c-1.4-0.2-4.1,0.1-4.1,0.1s0.8,1.3,2.2,2.3
			c0.5,0.3,1.2,0.4,1.9,0.4c-0.1,0-0.2,0.1-0.2,0.2c-1.1,0.9-2.6,3.1-2.6,3.1s1.5,0.3,3.2-0.1c0.8-0.2,1.4-0.9,2-1.5
			c0,0.5,0.2,0.9,0.4,1.2c0.9,1.1,3.2,2.5,3.2,2.5s0.2-1.5-0.2-3.2C129.6,127.2,129.3,126.8,128.9,126.5 M132.3,126.1
			c3.3,2.1,5.4,5.6,5.4,9.6c0,6.5-5.8,11.7-12.8,11.7c-7.1,0-12.8-5.2-12.8-11.7c0-4.9,3.3-9.1,7.9-10.8c0.4,0.5,0.9,0.9,1.4,1.2
			c0,0,0.1,0,0.1,0.1c-0.5,0.6-1,1.3-1.4,1.8l-1.1,1.6l1.9,0.4c1.1,0.2,2.6,0.2,3.7-0.1c0.5-0.1,0.9-0.3,1.3-0.6
			c0.9,0.9,2.3,2,3.3,2.6l1.7,1.1l0.3-1.9c0.2-1.1,0.1-2.6-0.2-3.7c0-0.1-0.1-0.2-0.1-0.3C131.4,126.7,131.9,126.4,132.3,126.1"/>
		<path style="clip-path:url(#SVGID_00000019663189365349409190000002071090303224345500_);fill:#FFFFFF;" d="M96,101.1
			c3.8-1.4,13.8,3.4,14.9,9.2c-1.5,2.2-3,4.4-4.5,6.5c-0.2-0.2-0.3-0.3-0.5-0.5c-0.9-0.8-2-1.6-3.1-2.1c-0.6-0.3-1.2,0-1.5,0.5
			c-0.3,0.6,0,1.2,0.5,1.5c1,0.4,1.8,1,2.6,1.7c0.2,0.2,0.5,0.4,0.7,0.7c-0.8,1.1-1.7,2.3-2.5,3.4c-0.6-0.5-1.2-1-2-1.4
			c-0.5-0.3-1.2-0.1-1.5,0.4c-0.3,0.5-0.1,1.2,0.4,1.5c0.6,0.3,1.2,0.8,1.7,1.2c-1.3,1.7-2.7,3.3-4,4.8l-0.1-0.1
			c-0.8-1-1.7-1.9-2.7-2.6c-0.5-0.3-1.2-0.2-1.5,0.3c-0.3,0.5-0.2,1.2,0.3,1.5c0.9,0.6,1.6,1.3,2.2,2.1c0.1,0.1,0.2,0.2,0.3,0.4
			c-4.3,4.5-8.5,7.6-12.5,8.4c-0.4-3.1,0.1-6.8,1.2-10.9c0.5,0.1,1,0.3,1.4,0.4c1,0.4,2,0.9,2.9,1.5c0.5,0.3,1.2,0.2,1.5-0.4
			c0.3-0.5,0.2-1.2-0.4-1.5c-1-0.6-2.1-1.2-3.3-1.6c-0.5-0.2-1.1-0.4-1.6-0.5c0.5-1.8,1.2-3.6,1.9-5.5l0.1,0c1,0.4,2,0.9,2.9,1.5
			c0.5,0.3,1.2,0.2,1.5-0.4c0.3-0.5,0.2-1.2-0.4-1.5c-1-0.6-2.1-1.2-3.3-1.6l0,0c1-2.3,2.1-4.7,3.3-7.2c0.1,0,0.2,0.1,0.3,0.1
			c1,0.4,2,0.9,2.9,1.5c0.5,0.3,1.2,0.2,1.5-0.4c0.3-0.5,0.2-1.2-0.4-1.5c-1-0.6-2.1-1.2-3.3-1.6l-0.1,0c0.5-1,1-1.9,1.5-2.9
			c0.6,0.1,1.3,0.3,1.9,0.5c1,0.4,2,0.9,2.9,1.5c0.5,0.3,1.2,0.2,1.5-0.4c0.3-0.5,0.2-1.2-0.4-1.5c-1-0.6-2.1-1.2-3.3-1.6
			c-0.5-0.2-1.1-0.4-1.6-0.5C95,103,95.5,102,96,101.1"/>
		<path style="clip-path:url(#SVGID_00000019663189365349409190000002071090303224345500_);fill:#FFFFFF;" d="M109.7,98.4
			c1.1-1.5,2.5-2.7,4.2-3.5l-1.3-2.7c-2.9,1.4-4.3,3.8-5.3,6.7c-0.3-0.2-0.6-0.3-0.9-0.3c1.1-2.5,1.5-5.1,0.4-7.8l-2.7,1.1
			c0.9,2.3,1,4.7,0.4,7c-0.5,0.2-0.9,0.6-1.2,1.1l-0.5,0.8c1.8,0.7,3.6,1.8,5,3l0.4-0.7c0.3-0.6,0.5-1.2,0.4-1.8
			c1.3-1,2.8-1.6,4.5-1.8l-0.2-2.3C111.8,97.3,110.7,97.8,109.7,98.4"/>
		<path style="clip-path:url(#SVGID_00000019663189365349409190000002071090303224345500_);fill:#FFFFFF;" d="M74.9,123.3l0.4-0.5
			c-9.1-8-21.3-12.3-33.3-7.4l0.2,0.6C53.3,112.6,65.7,116.7,74.9,123.3"/>
		<path style="clip-path:url(#SVGID_00000019663189365349409190000002071090303224345500_);fill:#FFFFFF;" d="M65.5,133.1
			c-7,4.9-15.2,1.4-21.3-4.1C50.6,132.7,57.3,135.6,65.5,133.1 M55.3,118.1l1.2,0.3c0.6,0.1,1,0.7,1,1.2c-0.2-0.4-0.6-0.7-1-0.8
			l-1.5-0.4c-0.5-0.1-0.9,0-1.3,0.2C54,118.2,54.6,117.9,55.3,118.1 M50.5,117.3l1,0.3c0.5,0.1,0.8,0.5,0.8,1
			c-0.2-0.3-0.5-0.5-0.8-0.6l-1.2-0.3c-0.4-0.1-0.8,0-1.1,0.2C49.5,117.4,50,117.2,50.5,117.3 M60.1,119.4l1.2,0.3
			c0.6,0.1,1,0.7,1,1.2c-0.2-0.4-0.6-0.7-1-0.8l-1.5-0.4c-0.5-0.1-0.9,0-1.3,0.2C58.9,119.5,59.5,119.2,60.1,119.4 M65,121l1.1,0.3
			c0.5,0.1,0.9,0.6,0.9,1.1c-0.2-0.3-0.5-0.6-0.9-0.7l-1.4-0.3c-0.4-0.1-0.9,0-1.2,0.2C63.9,121.1,64.4,120.9,65,121 M69.5,123
			l1.1,0.3c0.5,0.1,0.8,0.6,0.9,1.1c-0.2-0.3-0.5-0.6-0.9-0.7l-1.3-0.3c-0.4-0.1-0.8,0-1.1,0.2C68.5,123.1,69,122.9,69.5,123
			 M71.9,124.7c0.3-0.8-0.2-1.6-0.9-1.8l-1.3-0.4c-0.8-0.3-1.6,0.2-1.8,0.9l-0.3,0.8c0,0,0,0.1,0,0.1c-0.3,0-0.6-0.1-0.9-0.1
			c0.2-0.2,0.3-0.3,0.4-0.5l0.3-0.8c0.3-0.7-0.2-1.6-0.9-1.8l-1.3-0.4c-0.8-0.3-1.6,0.2-1.8,0.9l-0.3,0.8c-0.1,0.4,0,0.9,0.2,1.2
			c-0.6-0.1-1.2-0.3-1.9-0.4c0.5-0.1,1-0.5,1.2-1.1l0.2-0.8c0.2-0.8-0.3-1.7-1.1-1.9l-1.4-0.4c-0.8-0.2-1.7,0.3-1.9,1.1l-0.2,0.8
			c-0.2,0.6,0.1,1.3,0.6,1.6c-0.7-0.2-1.4-0.3-2.2-0.5c0.5-0.2,1-0.6,1.1-1.1l0.2-0.9c0.2-0.9-0.3-1.7-1.2-2l-1.5-0.4
			c-0.9-0.2-1.7,0.3-2,1.2l-0.2,0.9c-0.1,0.6,0.1,1.1,0.5,1.5c-0.7-0.2-1.3-0.4-2-0.5c0.5-0.1,1-0.5,1.1-1.1l0.2-0.8
			c0.2-0.8-0.3-1.5-1.1-1.7l-1.3-0.3c-0.8-0.2-1.5,0.3-1.7,1.1l-0.2,0.8c-0.1,0.4,0,0.9,0.3,1.2c-0.4-0.1-0.8-0.2-1.1-0.3
			c0,0,0,0,0-0.1l0.1-0.8c0.1-0.8-0.5-1.5-1.3-1.6l-1.4-0.1c-0.8-0.1-1.4,0.5-1.5,1.2c-0.4-0.1-0.7-0.2-0.9-0.3
			c-0.6-0.6-1.1-1.1-1.3-1.4c-1.2-1.5-4.7-2.8-4.7-2.8l-0.4,0.4c0,0,0.2-0.1,0.8,1.9c0.5,2-1.4,10.2,11.7,17.7
			c13.1,7.5,19.7-1.8,19.7-1.8l0-0.7c-1.9,0.4-5.5,0.8-11.4-1.9c-2.7-1.2-5.9-3.6-8.7-6c7.6,3,18.9,4.7,21.5,4.5
			c3.8-0.3,5.8-2.4,5.8-2.4s-1.4-0.1-3.9-0.5L71.9,124.7z"/>
	</g>
</g>
</svg>
