<?xml version="1.0" encoding="utf-8"?>
<!-- Generator: Adobe Illustrator 26.0.2, SVG Export Plug-In . SVG Version: 6.00 Build 0)  -->
<svg version="1.1" id="Ebene_1" xmlns="http://www.w3.org/2000/svg" xmlns:xlink="http://www.w3.org/1999/xlink" x="0px" y="0px"
	 viewBox="0 0 828 199.5" style="enable-background:new 0 0 828 199.5;" xml:space="preserve">
<style type="text/css">
	.st0{clip-path:url(#SVGID_00000140016273423322718080000012978489358951070112_);}
	.st1{filter:url(#Adobe_OpacityMaskFilter);}
	.st2{clip-path:url(#SVGID_00000166662037474187444220000005530074142508290444_);}
	
		.st3{clip-path:url(#SVGID_00000166662037474187444220000005530074142508290444_);mask:url(#SVGID_00000160152901927663684440000012211167000179968649_);}
	.st4{opacity:0.42;clip-path:url(#SVGID_00000174584751749103560390000009914038510957257352_);}
	.st5{clip-path:url(#SVGID_00000166662037474187444220000005530074142508290444_);fill:#FFD401;}
	.st6{clip-path:url(#SVGID_00000027606892670784506000000014845776270650454196_);}
	.st7{fill:#FFFFFF;}
	.st8{fill:none;stroke:#FFFFFF;stroke-width:0.44;stroke-miterlimit:5.219;}
	.st9{clip-path:url(#SVGID_00000027606892670784506000000014845776270650454196_);fill:#FFFFFF;}
</style>
<g>
	<defs>
		<rect id="SVGID_1_" width="828" height="199.5"/>
	</defs>
	<clipPath id="SVGID_00000032625966818869072920000012193603764723085440_">
		<use xlink:href="#SVGID_1_"  style="overflow:visible;"/>
	</clipPath>
	<g style="clip-path:url(#SVGID_00000032625966818869072920000012193603764723085440_);">
		<defs>
			<rect id="SVGID_00000028327229759475096150000009357282926625853095_" width="828" height="199.5"/>
		</defs>
		<clipPath id="SVGID_00000178912230486442302980000013271087808792207531_">
			<use xlink:href="#SVGID_00000028327229759475096150000009357282926625853095_"  style="overflow:visible;"/>
		</clipPath>
		<defs>
			<filter id="Adobe_OpacityMaskFilter" filterUnits="userSpaceOnUse" x="-35.6" y="-8.4" width="858.2" height="614.9">
				<feColorMatrix  type="matrix" values="1 0 0 0 0  0 1 0 0 0  0 0 1 0 0  0 0 0 1 0"/>
			</filter>
		</defs>
		
			<mask maskUnits="userSpaceOnUse" x="-35.6" y="-8.4" width="858.2" height="614.9" id="SVGID_00000143596237808292377290000014462225123321889727_">
			<g class="st1">
				<g>
					<defs>
						<rect id="SVGID_00000168829341049604143670000011649348341230173333_" x="-66.3" y="-22.8" width="919.7" height="635.5"/>
					</defs>
					
						<clipPath id="SVGID_00000119076418919837465820000003467979530501066672_" style="clip-path:url(#SVGID_00000178912230486442302980000013271087808792207531_);">
						<use xlink:href="#SVGID_00000168829341049604143670000011649348341230173333_"  style="overflow:visible;"/>
					</clipPath>
					<g style="clip-path:url(#SVGID_00000119076418919837465820000003467979530501066672_);">
						
							<image style="overflow:visible;" width="1916" height="1324" xlink:href="58FE4943A80BA5C2.jpg"  transform="matrix(0.48 0 0 0.48 -66.3372 -22.7951)">
						</image>
					</g>
				</g>
			</g>
		</mask>
		
			<g style="clip-path:url(#SVGID_00000178912230486442302980000013271087808792207531_);mask:url(#SVGID_00000143596237808292377290000014462225123321889727_);">
			<g>
				<defs>
					<rect id="SVGID_00000023239083336134482150000000752252315877034116_" x="-35.6" y="-8.4" width="858.2" height="614.9"/>
				</defs>
				<clipPath id="SVGID_00000114075434822113083730000002954477767698855101_">
					<use xlink:href="#SVGID_00000023239083336134482150000000752252315877034116_"  style="overflow:visible;"/>
				</clipPath>
				
					<rect x="-35.6" y="-8.4" style="opacity:0.42;clip-path:url(#SVGID_00000114075434822113083730000002954477767698855101_);" width="858.2" height="614.9"/>
			</g>
		</g>
		<path style="clip-path:url(#SVGID_00000178912230486442302980000013271087808792207531_);fill:#FFD401;" d="M-1.3,22.3
			c0,0,262.4,160.9,796,206.3l-1.2,353.3l-802.2-28l0.3-536.3L-1.3,22.3z"/>
	</g>
	<g style="clip-path:url(#SVGID_00000032625966818869072920000012193603764723085440_);">
		<defs>
			<rect id="SVGID_00000160894401216950167710000017956895641919458738_" width="828" height="199.5"/>
		</defs>
		<clipPath id="SVGID_00000054965893879606604570000018145803594188344451_">
			<use xlink:href="#SVGID_00000160894401216950167710000017956895641919458738_"  style="overflow:visible;"/>
		</clipPath>
		<g style="clip-path:url(#SVGID_00000054965893879606604570000018145803594188344451_);">
			<path class="st7" d="M37.7,165.4h3.1l4.3,19.1H43l-1-4.4h-5.6l-1,4.4h-2.1L37.7,165.4z M39.2,167.7l-2.4,10.6h4.8L39.2,167.7z"/>
		</g>
		<g style="clip-path:url(#SVGID_00000054965893879606604570000018145803594188344451_);">
			<path class="st8" d="M37.7,165.4h3.1l4.3,19.1H43l-1-4.4h-5.6l-1,4.4h-2.1L37.7,165.4z M39.2,167.7l-2.4,10.6h4.8L39.2,167.7z"/>
		</g>
		<g style="clip-path:url(#SVGID_00000054965893879606604570000018145803594188344451_);">
			<path class="st7" d="M58.5,180.8c0,2.7-1.7,4.1-5,4.1c-3.3,0-5-1.4-5-4.1v-2.5h2.1v2.6c0,0.7,0.2,1.3,0.7,1.6
				c0.5,0.4,1.2,0.6,2.2,0.6c1,0,1.7-0.2,2.2-0.6c0.5-0.4,0.7-0.9,0.7-1.6c0-0.7-0.1-1.2-0.2-1.6c-0.1-0.4-0.4-0.8-0.9-1.3l-5.2-5
				c-0.6-0.6-1-1.2-1.2-1.8c-0.2-0.6-0.3-1.3-0.3-2.2c0-1.3,0.4-2.3,1.2-3c0.8-0.7,2-1.1,3.7-1.1c3.1,0,4.7,1.4,4.7,4.1v2.5h-2.1
				v-2.6c0-0.7-0.2-1.2-0.7-1.6c-0.5-0.4-1.1-0.6-2.1-0.6c-0.9,0-1.6,0.2-2.1,0.6c-0.5,0.4-0.7,0.9-0.7,1.6c0,0.7,0.1,1.2,0.2,1.6
				c0.1,0.4,0.4,0.8,0.9,1.2l5.2,5c0.6,0.6,1,1.2,1.2,1.8C58.4,179.2,58.5,179.9,58.5,180.8z"/>
		</g>
		<g style="clip-path:url(#SVGID_00000054965893879606604570000018145803594188344451_);">
			<path class="st8" d="M58.5,180.8c0,2.7-1.7,4.1-5,4.1c-3.3,0-5-1.4-5-4.1v-2.5h2.1v2.6c0,0.7,0.2,1.3,0.7,1.6
				c0.5,0.4,1.2,0.6,2.2,0.6c1,0,1.7-0.2,2.2-0.6c0.5-0.4,0.7-0.9,0.7-1.6c0-0.7-0.1-1.2-0.2-1.6c-0.1-0.4-0.4-0.8-0.9-1.3l-5.2-5
				c-0.6-0.6-1-1.2-1.2-1.8c-0.2-0.6-0.3-1.3-0.3-2.2c0-1.3,0.4-2.3,1.2-3c0.8-0.7,2-1.1,3.7-1.1c3.1,0,4.7,1.4,4.7,4.1v2.5h-2.1
				v-2.6c0-0.7-0.2-1.2-0.7-1.6c-0.5-0.4-1.1-0.6-2.1-0.6c-0.9,0-1.6,0.2-2.1,0.6c-0.5,0.4-0.7,0.9-0.7,1.6c0,0.7,0.1,1.2,0.2,1.6
				c0.1,0.4,0.4,0.8,0.9,1.2l5.2,5c0.6,0.6,1,1.2,1.2,1.8C58.4,179.2,58.5,179.9,58.5,180.8z"/>
		</g>
		<g style="clip-path:url(#SVGID_00000054965893879606604570000018145803594188344451_);">
			<path class="st7" d="M67.9,182.7v1.8h-5v-1.8h1.5v-15.5h-1.5v-1.8h5v1.8h-1.5v15.5H67.9z"/>
		</g>
		<g style="clip-path:url(#SVGID_00000054965893879606604570000018145803594188344451_);">
			<path class="st8" d="M67.9,182.7v1.8h-5v-1.8h1.5v-15.5h-1.5v-1.8h5v1.8h-1.5v15.5H67.9z"/>
		</g>
		<g style="clip-path:url(#SVGID_00000054965893879606604570000018145803594188344451_);">
			<path class="st7" d="M75.4,165.4h3.1l4.3,19.1h-2.1l-1-4.4h-5.6l-1,4.4h-2.1L75.4,165.4z M77,167.7l-2.4,10.6h4.8L77,167.7z"/>
		</g>
		<g style="clip-path:url(#SVGID_00000054965893879606604570000018145803594188344451_);">
			<path class="st8" d="M75.4,165.4h3.1l4.3,19.1h-2.1l-1-4.4h-5.6l-1,4.4h-2.1L75.4,165.4z M77,167.7l-2.4,10.6h4.8L77,167.7z"/>
		</g>
		<g style="clip-path:url(#SVGID_00000054965893879606604570000018145803594188344451_);">
			<path class="st7" d="M103,180.8c0,2.7-1.7,4.1-5,4.1c-3.3,0-5-1.4-5-4.1v-2.5h2.1v2.6c0,0.7,0.2,1.3,0.7,1.6
				c0.5,0.4,1.2,0.6,2.2,0.6c1,0,1.7-0.2,2.2-0.6c0.5-0.4,0.7-0.9,0.7-1.6c0-0.7-0.1-1.2-0.2-1.6c-0.1-0.4-0.4-0.8-0.9-1.3l-5.2-5
				c-0.6-0.6-1-1.2-1.2-1.8c-0.2-0.6-0.3-1.3-0.3-2.2c0-1.3,0.4-2.3,1.2-3c0.8-0.7,2-1.1,3.7-1.1c3.1,0,4.7,1.4,4.7,4.1v2.5h-2.1
				v-2.6c0-0.7-0.2-1.2-0.7-1.6c-0.5-0.4-1.1-0.6-2.1-0.6c-0.9,0-1.6,0.2-2.1,0.6c-0.5,0.4-0.7,0.9-0.7,1.6c0,0.7,0.1,1.2,0.2,1.6
				c0.1,0.4,0.4,0.8,0.9,1.2l5.2,5c0.6,0.6,1,1.2,1.2,1.8C102.9,179.2,103,179.9,103,180.8z"/>
		</g>
		<g style="clip-path:url(#SVGID_00000054965893879606604570000018145803594188344451_);">
			<path class="st8" d="M103,180.8c0,2.7-1.7,4.1-5,4.1c-3.3,0-5-1.4-5-4.1v-2.5h2.1v2.6c0,0.7,0.2,1.3,0.7,1.6
				c0.5,0.4,1.2,0.6,2.2,0.6c1,0,1.7-0.2,2.2-0.6c0.5-0.4,0.7-0.9,0.7-1.6c0-0.7-0.1-1.2-0.2-1.6c-0.1-0.4-0.4-0.8-0.9-1.3l-5.2-5
				c-0.6-0.6-1-1.2-1.2-1.8c-0.2-0.6-0.3-1.3-0.3-2.2c0-1.3,0.4-2.3,1.2-3c0.8-0.7,2-1.1,3.7-1.1c3.1,0,4.7,1.4,4.7,4.1v2.5h-2.1
				v-2.6c0-0.7-0.2-1.2-0.7-1.6c-0.5-0.4-1.1-0.6-2.1-0.6c-0.9,0-1.6,0.2-2.1,0.6c-0.5,0.4-0.7,0.9-0.7,1.6c0,0.7,0.1,1.2,0.2,1.6
				c0.1,0.4,0.4,0.8,0.9,1.2l5.2,5c0.6,0.6,1,1.2,1.2,1.8C102.9,179.2,103,179.9,103,180.8z"/>
		</g>
		<g style="clip-path:url(#SVGID_00000054965893879606604570000018145803594188344451_);">
			<path class="st7" d="M115.9,165.4v1.8h-3.8v17.3H110v-17.3h-3.8v-1.8H115.9z"/>
		</g>
		<g style="clip-path:url(#SVGID_00000054965893879606604570000018145803594188344451_);">
			<path class="st8" d="M115.9,165.4v1.8h-3.8v17.3H110v-17.3h-3.8v-1.8H115.9z"/>
		</g>
		<g style="clip-path:url(#SVGID_00000054965893879606604570000018145803594188344451_);">
			<path class="st7" d="M124.4,184.5h-2.1v-6.8l-4.8-12.2h2.2l3.7,9.8l3.7-9.8h2.2l-4.8,12.3V184.5z"/>
		</g>
		<g style="clip-path:url(#SVGID_00000054965893879606604570000018145803594188344451_);">
			<path class="st8" d="M124.4,184.5h-2.1v-6.8l-4.8-12.2h2.2l3.7,9.8l3.7-9.8h2.2l-4.8,12.3V184.5z"/>
		</g>
		<g style="clip-path:url(#SVGID_00000054965893879606604570000018145803594188344451_);">
			<path class="st7" d="M132.9,184.5v-19.1h2.1v17.3h5.4v1.8H132.9z"/>
		</g>
		<g style="clip-path:url(#SVGID_00000054965893879606604570000018145803594188344451_);">
			<path class="st8" d="M132.9,184.5v-19.1h2.1v17.3h5.4v1.8H132.9z"/>
		</g>
		<g style="clip-path:url(#SVGID_00000054965893879606604570000018145803594188344451_);">
			<path class="st7" d="M152.5,184.5h-8.6v-19.1h8.4v1.8h-6.3v6.7h5.1v1.8h-5.1v7h6.6V184.5z"/>
		</g>
		<g style="clip-path:url(#SVGID_00000054965893879606604570000018145803594188344451_);">
			<path class="st8" d="M152.5,184.5h-8.6v-19.1h8.4v1.8h-6.3v6.7h5.1v1.8h-5.1v7h6.6V184.5z"/>
		</g>
		<path style="clip-path:url(#SVGID_00000054965893879606604570000018145803594188344451_);fill:#FFFFFF;" d="M64.6,129.5l4.3-2.4
			c-1.4-0.9-2.2-1.8-2.2-2.8c0-1.9,3-3.7,7.9-5.2c3.3-1,7.5-1.8,12.1-2.3l6.1-3.5c-7.4,0.2-14.1,1.3-19.2,2.8
			c-6.3,1.9-10.1,4.8-10.1,8.2c0,0.6,0.1,1.1,0.3,1.7C64,127.2,64.2,128.3,64.6,129.5 M64.7,137l0.9,1.8l62.8-29.1
			c-0.1-1.8-1.2-3.1-3.5-3.5L64.7,137z M57.8,136.3l0.9,1.6l58.2-30.4c-0.2-1.7-1.3-2.8-3.4-3.2L57.8,136.3z M127.9,126
			c-1.2,9-6.8,16.9-15,21.6c-4.9,2.8-10.8,3.6-17,3.6c-5.8,0-11.3-0.6-16-3.1c-4-2.1-7.5-5-10.2-8.5l17-7.9c2.9,0.3,6,0.4,9.2,0.4
			c8.4,0,15.9-1,21.3-2.7c4.9-1.5,7.9-3.4,7.9-5.2c0-1.9-3-3.7-7.9-5.2c-0.6-0.2-1.2-0.4-1.9-0.5l4.2-2c5.4,1.9,8.7,4.6,8.7,7.7
			C128.2,124.9,128.1,125.5,127.9,126"/>
	</g>
</g>
</svg>
