<?xml version="1.0" encoding="utf-8"?>
<!-- Generator: Adobe Illustrator 26.0.2, SVG Export Plug-In . SVG Version: 6.00 Build 0)  -->
<svg version="1.1" id="Ebene_1" xmlns="http://www.w3.org/2000/svg" xmlns:xlink="http://www.w3.org/1999/xlink" x="0px" y="0px"
	 viewBox="0 0 828 199.5" style="enable-background:new 0 0 828 199.5;" xml:space="preserve">
<style type="text/css">
	.st0{clip-path:url(#SVGID_00000093871311944866556020000009024767984443635875_);}
	.st1{filter:url(#Adobe_OpacityMaskFilter);}
	.st2{clip-path:url(#SVGID_00000057857737063653098040000004301563851736841353_);}
	
		.st3{clip-path:url(#SVGID_00000057857737063653098040000004301563851736841353_);mask:url(#SVGID_00000117650235761859073190000010643920886199936699_);}
	.st4{opacity:0.75;clip-path:url(#SVGID_00000158744641351464272800000016372938434025769389_);}
	.st5{clip-path:url(#SVGID_00000057857737063653098040000004301563851736841353_);fill:#EC0F6D;}
	.st6{clip-path:url(#SVGID_00000179645050175946588130000004300874179955284159_);}
	.st7{fill:#FFFFFF;}
	.st8{font-family:'UnicaOne-Regular';}
	.st9{font-size:29.3182px;}
	.st10{fill:none;stroke:#FFFFFF;stroke-width:0.44;stroke-miterlimit:5.219;}
	.st11{clip-path:url(#SVGID_00000179645050175946588130000004300874179955284159_);fill:#FFFFFF;}
	.st12{clip-path:url(#SVGID_00000093871311944866556020000009024767984443635875_);fill:#FFFFFF;}
	.st13{clip-path:url(#SVGID_00000000204975071518129450000009153529471176293302_);fill:#FFFFFF;}
</style>
<g>
	<defs>
		<rect id="SVGID_1_" width="828" height="199.5"/>
	</defs>
	<clipPath id="SVGID_00000178909314185750577060000006807313091592164492_">
		<use xlink:href="#SVGID_1_"  style="overflow:visible;"/>
	</clipPath>
	<g style="clip-path:url(#SVGID_00000178909314185750577060000006807313091592164492_);">
		<defs>
			<rect id="SVGID_00000127760497123416308920000017092516801355391366_" width="828" height="199.5"/>
		</defs>
		<clipPath id="SVGID_00000161630940404113749860000013725013607305752207_">
			<use xlink:href="#SVGID_00000127760497123416308920000017092516801355391366_"  style="overflow:visible;"/>
		</clipPath>
		<defs>
			<filter id="Adobe_OpacityMaskFilter" filterUnits="userSpaceOnUse" x="-15" y="9.3" width="817" height="577">
				<feColorMatrix  type="matrix" values="1 0 0 0 0  0 1 0 0 0  0 0 1 0 0  0 0 0 1 0"/>
			</filter>
		</defs>
		
			<mask maskUnits="userSpaceOnUse" x="-15" y="9.3" width="817" height="577" id="SVGID_00000105427424443522319790000009997217034178057897_">
			<g class="st1">
				<g>
					<defs>
						<rect id="SVGID_00000179621668767477505990000003095425890425515147_" x="-43.3" y="0.2" width="873.6" height="589.4"/>
					</defs>
					
						<clipPath id="SVGID_00000102537255582308108790000002211273596492195234_" style="clip-path:url(#SVGID_00000161630940404113749860000013725013607305752207_);">
						<use xlink:href="#SVGID_00000179621668767477505990000003095425890425515147_"  style="overflow:visible;"/>
					</clipPath>
					<g style="clip-path:url(#SVGID_00000102537255582308108790000002211273596492195234_);">
						
							<image style="overflow:visible;" width="1820" height="1228" xlink:href="88018108FD25EFF9.jpg"  transform="matrix(0.48 0 0 0.48 -43.3328 0.2236)">
						</image>
					</g>
				</g>
			</g>
		</mask>
		
			<g style="clip-path:url(#SVGID_00000161630940404113749860000013725013607305752207_);mask:url(#SVGID_00000105427424443522319790000009997217034178057897_);">
			<g>
				<defs>
					<rect id="SVGID_00000121973014651414531200000017767744748118077088_" x="-15" y="9.3" width="817" height="577"/>
				</defs>
				<clipPath id="SVGID_00000049180007352670516890000004329917239036932773_">
					<use xlink:href="#SVGID_00000121973014651414531200000017767744748118077088_"  style="overflow:visible;"/>
				</clipPath>
				
					<rect x="-15" y="9.3" style="opacity:0.75;clip-path:url(#SVGID_00000049180007352670516890000004329917239036932773_);" width="817" height="577"/>
			</g>
		</g>
		<path style="clip-path:url(#SVGID_00000161630940404113749860000013725013607305752207_);fill:#EC0F6D;" d="M-1.3,22.3
			c0,0,262.4,160.9,796,206.3l-1.2,353.3l-802.2-28l0.3-536.3L-1.3,22.3z"/>
	</g>
	<g style="clip-path:url(#SVGID_00000178909314185750577060000006807313091592164492_);">
		<defs>
			<rect id="SVGID_00000026867967539642807140000005207596965347163010_" width="828" height="199.5"/>
		</defs>
		<clipPath id="SVGID_00000054265441005224201810000010798360599018789305_">
			<use xlink:href="#SVGID_00000026867967539642807140000005207596965347163010_"  style="overflow:visible;"/>
		</clipPath>
		<g style="clip-path:url(#SVGID_00000054265441005224201810000010798360599018789305_);">
			<text transform="matrix(1 0 0 1 21.1074 184.4521)" class="st7 st8 st9">I</text>
		</g>
		<g style="clip-path:url(#SVGID_00000054265441005224201810000010798360599018789305_);">
			<text transform="matrix(1 0 0 1 21.1074 184.4521)" class="st10 st8 st9">I</text>
		</g>
		<g style="clip-path:url(#SVGID_00000054265441005224201810000010798360599018789305_);">
			<text transform="matrix(1 0 0 1 30.1963 184.4521)" class="st7 st8 st9">N</text>
		</g>
		<g style="clip-path:url(#SVGID_00000054265441005224201810000010798360599018789305_);">
			<text transform="matrix(1 0 0 1 30.1963 184.4521)" class="st10 st8 st9">N</text>
		</g>
		<g style="clip-path:url(#SVGID_00000054265441005224201810000010798360599018789305_);">
			<text transform="matrix(1 0 0 1 46.5264 184.4521)" class="st7 st8 st9">D</text>
		</g>
		<g style="clip-path:url(#SVGID_00000054265441005224201810000010798360599018789305_);">
			<text transform="matrix(1 0 0 1 46.5264 184.4521)" class="st10 st8 st9">D</text>
		</g>
		<g style="clip-path:url(#SVGID_00000054265441005224201810000010798360599018789305_);">
			<text transform="matrix(1 0 0 1 61.3325 184.4521)" class="st7 st8 st9">I</text>
		</g>
		<g style="clip-path:url(#SVGID_00000054265441005224201810000010798360599018789305_);">
			<text transform="matrix(1 0 0 1 61.3325 184.4521)" class="st10 st8 st9">I</text>
		</g>
		<g style="clip-path:url(#SVGID_00000054265441005224201810000010798360599018789305_);">
			<text transform="matrix(1 0 0 1 70.4209 184.4521)" class="st7 st8 st9">A</text>
		</g>
		<g style="clip-path:url(#SVGID_00000054265441005224201810000010798360599018789305_);">
			<text transform="matrix(1 0 0 1 70.4209 184.4521)" class="st10 st8 st9">A</text>
		</g>
		<g style="clip-path:url(#SVGID_00000054265441005224201810000010798360599018789305_);">
			<text transform="matrix(1 0 0 1 84.4644 184.4521)" class="st7 st8 st9">N</text>
		</g>
		<g style="clip-path:url(#SVGID_00000054265441005224201810000010798360599018789305_);">
			<text transform="matrix(1 0 0 1 84.4644 184.4521)" class="st10 st8 st9">N</text>
		</g>
		<g style="clip-path:url(#SVGID_00000054265441005224201810000010798360599018789305_);">
			<text transform="matrix(1 0 0 1 100.7949 184.4521)" class="st7 st8 st9"> </text>
		</g>
		<g style="clip-path:url(#SVGID_00000054265441005224201810000010798360599018789305_);">
			<text transform="matrix(1 0 0 1 100.7949 184.4521)" class="st10 st8 st9"> </text>
		</g>
		<g style="clip-path:url(#SVGID_00000054265441005224201810000010798360599018789305_);">
			<text transform="matrix(1 0 0 1 107.5381 184.4521)" class="st7 st8 st9">S</text>
		</g>
		<g style="clip-path:url(#SVGID_00000054265441005224201810000010798360599018789305_);">
			<text transform="matrix(1 0 0 1 107.5381 184.4521)" class="st10 st8 st9">S</text>
		</g>
		<g style="clip-path:url(#SVGID_00000054265441005224201810000010798360599018789305_);">
			<text transform="matrix(1 0 0 1 122.1387 184.4521)" class="st7 st8 st9">T</text>
		</g>
		<g style="clip-path:url(#SVGID_00000054265441005224201810000010798360599018789305_);">
			<text transform="matrix(1 0 0 1 122.1387 184.4521)" class="st10 st8 st9">T</text>
		</g>
		<g style="clip-path:url(#SVGID_00000054265441005224201810000010798360599018789305_);">
			<text transform="matrix(1 0 0 1 133.5728 184.4521)" class="st7 st8 st9">Y</text>
		</g>
		<g style="clip-path:url(#SVGID_00000054265441005224201810000010798360599018789305_);">
			<text transform="matrix(1 0 0 1 133.5728 184.4521)" class="st10 st8 st9">Y</text>
		</g>
		<g style="clip-path:url(#SVGID_00000054265441005224201810000010798360599018789305_);">
			<text transform="matrix(1 0 0 1 146.7656 184.4521)" class="st7 st8 st9">L</text>
		</g>
		<g style="clip-path:url(#SVGID_00000054265441005224201810000010798360599018789305_);">
			<text transform="matrix(1 0 0 1 146.7656 184.4521)" class="st10 st8 st9">L</text>
		</g>
		<g style="clip-path:url(#SVGID_00000054265441005224201810000010798360599018789305_);">
			<text transform="matrix(1 0 0 1 157.7012 184.4521)" class="st7 st8 st9">E</text>
		</g>
		<g style="clip-path:url(#SVGID_00000054265441005224201810000010798360599018789305_);">
			<text transform="matrix(1 0 0 1 157.7012 184.4521)" class="st10 st8 st9">E</text>
		</g>
		<path style="clip-path:url(#SVGID_00000054265441005224201810000010798360599018789305_);fill:#FFFFFF;" d="M73.6,123.4l4.6-4.9
			l-0.9-0.8l-3.1,3.3l1.7-3.7l-1.1-0.5l-1.5,3.2l0-4.2l-1.2,0l0,6l-3-4.9l-1.1,0.7l3.5,5.8c-1.8,0.2-3.2,1.4-3.9,3h9.1
			C76.1,124.9,75,123.9,73.6,123.4"/>
	</g>
	<polygon style="clip-path:url(#SVGID_00000178909314185750577060000006807313091592164492_);fill:#FFFFFF;" points="123.2,123.6 
		120.8,126.2 126.2,126.2 	"/>
	<g style="clip-path:url(#SVGID_00000178909314185750577060000006807313091592164492_);">
		<defs>
			<rect id="SVGID_00000131363730264985931950000016704634014992111020_" width="828" height="199.5"/>
		</defs>
		<clipPath id="SVGID_00000029756775910166999630000002426478412547827332_">
			<use xlink:href="#SVGID_00000131363730264985931950000016704634014992111020_"  style="overflow:visible;"/>
		</clipPath>
		<path style="clip-path:url(#SVGID_00000029756775910166999630000002426478412547827332_);fill:#FFFFFF;" d="M116.6,115.6
			c-1.1-0.8-2.3-1.1-3.6-1.1c-2.8,0-5.9,1.7-8,4.6c-0.8,1.1-1.3,2.2-1.7,3.3c-0.9-0.7-2-1.1-3.2-1.1c-2.8,0-5,2.1-5.5,4.9h8.3h2.8
			h1.6c0-0.2,0-0.3,0-0.5c0-1.3,0.5-2.8,1.4-4.1c1.4-1.9,3.2-2.8,4.4-2.8c0.4,0,0.8,0.1,1,0.3c1.1,0.8,1.1,3.6-0.6,5.9
			c-0.3,0.4-0.6,0.7-0.9,1h5.5C120,122.3,119.5,117.8,116.6,115.6"/>
		<path style="clip-path:url(#SVGID_00000029756775910166999630000002426478412547827332_);fill:#FFFFFF;" d="M82.2,118.1
			c-1.2,0-2.3,0.3-3.2,1c-2,1.5-2.6,4.3-1.9,7.1h4.8c-0.9-1.7-0.7-3.2-0.2-3.5c0.1-0.1,0.3-0.1,0.6-0.1c0.9,0,2.3,0.7,3.4,2.1
			c0.4,0.5,0.7,1.1,0.8,1.5h4.6c-0.3-1.4-0.9-2.9-1.9-4.2C87.3,119.5,84.7,118.1,82.2,118.1"/>
		<path style="clip-path:url(#SVGID_00000029756775910166999630000002426478412547827332_);fill:#FFFFFF;" d="M82.4,105
			c1.1,0.7,1.5,1.1,1.5,1.8c0,0.8-0.4,1.3-1.4,2.1c-1,0.9-2.4,2.1-2.3,4.3l2.4-0.1c-0.1-1,0.5-1.4,1.5-2.3c1.1-0.9,2.4-2,2.3-4.1
			c-0.1-2-1.5-3-2.6-3.7c-1.1-0.7-1.7-1.2-1.8-2.4c-0.1-1.2,0.4-1.6,1.4-2.5c0.9-0.8,2.2-1.9,2.1-4.1L83,94.2c0,0.9-0.4,1.3-1.3,2.1
			c-1,0.9-2.4,2-2.2,4.4C79.7,103.2,81.3,104.2,82.4,105"/>
		<path style="clip-path:url(#SVGID_00000029756775910166999630000002426478412547827332_);fill:#FFFFFF;" d="M94.5,105.8
			c1.1,0.7,1.5,1.1,1.5,1.8c0,0.8-0.4,1.3-1.4,2.1c-1,0.9-2.5,2.1-2.3,4.3l2.4-0.1c-0.1-1,0.5-1.4,1.5-2.3c1.1-0.9,2.4-2,2.3-4.1
			c-0.1-2-1.5-3-2.6-3.7c-1.1-0.7-1.7-1.2-1.8-2.4c-0.1-1.2,0.4-1.6,1.4-2.5c0.9-0.8,2.2-1.9,2.1-4.1L95.2,95c0,0.9-0.4,1.3-1.3,2.1
			c-1,0.9-2.4,2-2.2,4.4C91.8,104,93.4,105,94.5,105.8"/>
		<path style="clip-path:url(#SVGID_00000029756775910166999630000002426478412547827332_);fill:#FFFFFF;" d="M107.3,105.5
			c1.1,0.7,1.5,1.1,1.5,1.8c0,0.8-0.4,1.3-1.4,2.1c-1,0.9-2.5,2.1-2.3,4.3l2.4-0.1c-0.1-1,0.5-1.4,1.5-2.3c1.1-0.9,2.4-2,2.3-4.1
			c-0.1-2-1.5-3-2.6-3.7c-1.1-0.7-1.7-1.2-1.8-2.4c-0.1-1.2,0.4-1.6,1.4-2.5c0.9-0.8,2.2-1.9,2.1-4.1l-2.4,0.1
			c0,0.9-0.4,1.3-1.3,2.1c-1,0.9-2.4,2-2.2,4.4C104.5,103.6,106.1,104.7,107.3,105.5"/>
		<path style="clip-path:url(#SVGID_00000029756775910166999630000002426478412547827332_);fill:#FFFFFF;" d="M71.4,129.9
			c0,0,2.6,0.5,6.4,0.2c1.4,6.6,8.8,10.5,8.8,10.5C73.8,136.5,71.4,129.9,71.4,129.9 M127.3,126.3H62.9c5.1,8.8,13.3,15.3,23.1,17.8
			c-1.4,1.6-2.7,3.5-3.6,5.7h25.4c-0.9-2.1-2.1-4.2-3.6-5.7C114,141.5,122.3,135,127.3,126.3"/>
	</g>
</g>
</svg>
