<?xml version="1.0" encoding="utf-8"?>
<!-- Generator: Adobe Illustrator 26.0.2, SVG Export Plug-In . SVG Version: 6.00 Build 0)  -->
<svg version="1.1" id="Ebene_1" xmlns="http://www.w3.org/2000/svg" xmlns:xlink="http://www.w3.org/1999/xlink" x="0px" y="0px"
	 viewBox="0 0 828 200.5" style="enable-background:new 0 0 828 200.5;" xml:space="preserve">
<style type="text/css">
	.st0{clip-path:url(#SVGID_00000172441840345625363890000010947410240593459854_);}
	.st1{filter:url(#Adobe_OpacityMaskFilter);}
	.st2{clip-path:url(#SVGID_00000112624604211907982800000017733371107547239568_);}
	
		.st3{clip-path:url(#SVGID_00000112624604211907982800000017733371107547239568_);mask:url(#SVGID_00000174573919995386885290000012879729515199345045_);}
	.st4{opacity:0.75;clip-path:url(#SVGID_00000091706121783231689280000001899996460914800825_);}
	.st5{clip-path:url(#SVGID_00000112624604211907982800000017733371107547239568_);fill:#FF8A00;}
	.st6{clip-path:url(#SVGID_00000100351686046383466210000018160772622371003537_);}
	.st7{fill:#FFFFFF;}
	.st8{font-family:'UnicaOne-Regular';}
	.st9{font-size:29.3182px;}
	.st10{fill:none;stroke:#FFFFFF;stroke-width:0.44;stroke-miterlimit:5.219;}
	.st11{clip-path:url(#SVGID_00000100351686046383466210000018160772622371003537_);fill:#FFFFFF;}
	.st12{clip-path:url(#SVGID_00000100351686046383466210000018160772622371003537_);fill:#2B363D;}
	.st13{clip-path:url(#SVGID_00000100351686046383466210000018160772622371003537_);fill:none;stroke:#FF8A00;stroke-width:1.763;}
	.st14{clip-path:url(#SVGID_00000049199197248429862510000014251679424474508693_);}
</style>
<g>
	<defs>
		<rect id="SVGID_1_" width="828" height="200.5"/>
	</defs>
	<clipPath id="SVGID_00000089572499596434472600000009502503679562618257_">
		<use xlink:href="#SVGID_1_"  style="overflow:visible;"/>
	</clipPath>
	<g style="clip-path:url(#SVGID_00000089572499596434472600000009502503679562618257_);">
		<defs>
			<rect id="SVGID_00000079465785990088961970000009952184572797696691_" y="1" width="828" height="199.5"/>
		</defs>
		<clipPath id="SVGID_00000052105787582557445850000008663679929269594552_">
			<use xlink:href="#SVGID_00000079465785990088961970000009952184572797696691_"  style="overflow:visible;"/>
		</clipPath>
		<defs>
			<filter id="Adobe_OpacityMaskFilter" filterUnits="userSpaceOnUse" x="-15" y="10.4" width="817" height="577">
				<feColorMatrix  type="matrix" values="1 0 0 0 0  0 1 0 0 0  0 0 1 0 0  0 0 0 1 0"/>
			</filter>
		</defs>
		
			<mask maskUnits="userSpaceOnUse" x="-15" y="10.4" width="817" height="577" id="SVGID_00000072966367523533756530000013609986961552838333_">
			<g class="st1">
				<g>
					<defs>
						<rect id="SVGID_00000152970087357353834540000013011801088662314669_" x="-43.3" y="1.3" width="873.6" height="589.4"/>
					</defs>
					
						<clipPath id="SVGID_00000043420808906773689610000015362346126525502397_" style="clip-path:url(#SVGID_00000052105787582557445850000008663679929269594552_);">
						<use xlink:href="#SVGID_00000152970087357353834540000013011801088662314669_"  style="overflow:visible;"/>
					</clipPath>
					<g style="clip-path:url(#SVGID_00000043420808906773689610000015362346126525502397_);">
						
							<image style="overflow:visible;" width="1820" height="1228" xlink:href="DF4C0BA6B1AD9CA3.jpg"  transform="matrix(0.48 0 0 0.48 -43.3328 1.2646)">
						</image>
					</g>
				</g>
			</g>
		</mask>
		
			<g style="clip-path:url(#SVGID_00000052105787582557445850000008663679929269594552_);mask:url(#SVGID_00000072966367523533756530000013609986961552838333_);">
			<g>
				<defs>
					<rect id="SVGID_00000095308319466176304560000015158402467122104719_" x="-15" y="10.4" width="817" height="577"/>
				</defs>
				<clipPath id="SVGID_00000026154916120533719510000016094069015896056453_">
					<use xlink:href="#SVGID_00000095308319466176304560000015158402467122104719_"  style="overflow:visible;"/>
				</clipPath>
				
					<rect x="-15" y="10.4" style="opacity:0.75;clip-path:url(#SVGID_00000026154916120533719510000016094069015896056453_);" width="817" height="577"/>
			</g>
		</g>
		<path style="clip-path:url(#SVGID_00000052105787582557445850000008663679929269594552_);fill:#FF8A00;" d="M-1.3,23.3
			c0,0,262.4,160.9,796,206.3l-1.2,353.3l-802.2-28l0.3-536.3L-1.3,23.3z"/>
	</g>
	<g style="clip-path:url(#SVGID_00000089572499596434472600000009502503679562618257_);">
		<defs>
			<rect id="SVGID_00000012433331315430097170000001230526785780172680_" width="828" height="200.5"/>
		</defs>
		<clipPath id="SVGID_00000103944953288265776290000007918648507504550301_">
			<use xlink:href="#SVGID_00000012433331315430097170000001230526785780172680_"  style="overflow:visible;"/>
		</clipPath>
		<g style="clip-path:url(#SVGID_00000103944953288265776290000007918648507504550301_);">
			<text transform="matrix(1 0 0 1 38.9194 185.4931)" class="st7 st8 st9">T</text>
		</g>
		<g style="clip-path:url(#SVGID_00000103944953288265776290000007918648507504550301_);">
			<text transform="matrix(1 0 0 1 38.9194 185.4931)" class="st10 st8 st9">T</text>
		</g>
		<g style="clip-path:url(#SVGID_00000103944953288265776290000007918648507504550301_);">
			<text transform="matrix(1 0 0 1 50.3535 185.4931)" class="st7 st8 st9">H</text>
		</g>
		<g style="clip-path:url(#SVGID_00000103944953288265776290000007918648507504550301_);">
			<text transform="matrix(1 0 0 1 50.3535 185.4931)" class="st10 st8 st9">H</text>
		</g>
		<g style="clip-path:url(#SVGID_00000103944953288265776290000007918648507504550301_);">
			<text transform="matrix(1 0 0 1 66.0977 185.4931)" class="st7 st8 st9">E</text>
		</g>
		<g style="clip-path:url(#SVGID_00000103944953288265776290000007918648507504550301_);">
			<text transform="matrix(1 0 0 1 66.0977 185.4931)" class="st10 st8 st9">E</text>
		</g>
		<g style="clip-path:url(#SVGID_00000103944953288265776290000007918648507504550301_);">
			<text transform="matrix(1 0 0 1 79.1445 185.4931)" class="st7 st8 st9"> </text>
		</g>
		<g style="clip-path:url(#SVGID_00000103944953288265776290000007918648507504550301_);">
			<text transform="matrix(1 0 0 1 79.1445 185.4931)" class="st10 st8 st9"> </text>
		</g>
		<g style="clip-path:url(#SVGID_00000103944953288265776290000007918648507504550301_);">
			<text transform="matrix(1 0 0 1 85.8872 185.4931)" class="st7 st8 st9">C</text>
		</g>
		<g style="clip-path:url(#SVGID_00000103944953288265776290000007918648507504550301_);">
			<text transform="matrix(1 0 0 1 85.8872 185.4931)" class="st10 st8 st9">C</text>
		</g>
		<g style="clip-path:url(#SVGID_00000103944953288265776290000007918648507504550301_);">
			<text transform="matrix(1 0 0 1 100.2534 185.4931)" class="st7 st8 st9">U</text>
		</g>
		<g style="clip-path:url(#SVGID_00000103944953288265776290000007918648507504550301_);">
			<text transform="matrix(1 0 0 1 100.2534 185.4931)" class="st10 st8 st9">U</text>
		</g>
		<g style="clip-path:url(#SVGID_00000103944953288265776290000007918648507504550301_);">
			<text transform="matrix(1 0 0 1 115.499 185.4931)" class="st7 st8 st9">R</text>
		</g>
		<g style="clip-path:url(#SVGID_00000103944953288265776290000007918648507504550301_);">
			<text transform="matrix(1 0 0 1 115.499 185.4931)" class="st10 st8 st9">R</text>
		</g>
		<g style="clip-path:url(#SVGID_00000103944953288265776290000007918648507504550301_);">
			<text transform="matrix(1 0 0 1 129.7183 185.4931)" class="st7 st8 st9">R</text>
		</g>
		<g style="clip-path:url(#SVGID_00000103944953288265776290000007918648507504550301_);">
			<text transform="matrix(1 0 0 1 129.7183 185.4931)" class="st10 st8 st9">R</text>
		</g>
		<g style="clip-path:url(#SVGID_00000103944953288265776290000007918648507504550301_);">
			<text transform="matrix(1 0 0 1 143.938 185.4931)" class="st7 st8 st9">Y</text>
		</g>
		<g style="clip-path:url(#SVGID_00000103944953288265776290000007918648507504550301_);">
			<text transform="matrix(1 0 0 1 143.938 185.4931)" class="st10 st8 st9">Y</text>
		</g>
		<g style="clip-path:url(#SVGID_00000103944953288265776290000007918648507504550301_);">
			<text transform="matrix(1 0 0 1 157.1309 185.4931)" class="st7 st8 st9"> </text>
		</g>
		<g style="clip-path:url(#SVGID_00000103944953288265776290000007918648507504550301_);">
			<text transform="matrix(1 0 0 1 157.1309 185.4931)" class="st10 st8 st9"> </text>
		</g>
		<g style="clip-path:url(#SVGID_00000103944953288265776290000007918648507504550301_);">
			<text transform="matrix(1 0 0 1 163.874 185.4931)" class="st7 st8 st9">P</text>
		</g>
		<g style="clip-path:url(#SVGID_00000103944953288265776290000007918648507504550301_);">
			<text transform="matrix(1 0 0 1 163.874 185.4931)" class="st10 st8 st9">P</text>
		</g>
		<g style="clip-path:url(#SVGID_00000103944953288265776290000007918648507504550301_);">
			<text transform="matrix(1 0 0 1 177.3604 185.4931)" class="st7 st8 st9">R</text>
		</g>
		<g style="clip-path:url(#SVGID_00000103944953288265776290000007918648507504550301_);">
			<text transform="matrix(1 0 0 1 177.3604 185.4931)" class="st10 st8 st9">R</text>
		</g>
		<g style="clip-path:url(#SVGID_00000103944953288265776290000007918648507504550301_);">
			<text transform="matrix(1 0 0 1 191.5801 185.4931)" class="st7 st8 st9">O</text>
		</g>
		<g style="clip-path:url(#SVGID_00000103944953288265776290000007918648507504550301_);">
			<text transform="matrix(1 0 0 1 191.5801 185.4931)" class="st10 st8 st9">O</text>
		</g>
		<g style="clip-path:url(#SVGID_00000103944953288265776290000007918648507504550301_);">
			<text transform="matrix(1 0 0 1 206.5322 185.4931)" class="st7 st8 st9">J</text>
		</g>
		<g style="clip-path:url(#SVGID_00000103944953288265776290000007918648507504550301_);">
			<text transform="matrix(1 0 0 1 206.5322 185.4931)" class="st10 st8 st9">J</text>
		</g>
		<g style="clip-path:url(#SVGID_00000103944953288265776290000007918648507504550301_);">
			<text transform="matrix(1 0 0 1 217.6729 185.4931)" class="st7 st8 st9">E</text>
		</g>
		<g style="clip-path:url(#SVGID_00000103944953288265776290000007918648507504550301_);">
			<text transform="matrix(1 0 0 1 217.6729 185.4931)" class="st10 st8 st9">E</text>
		</g>
		<g style="clip-path:url(#SVGID_00000103944953288265776290000007918648507504550301_);">
			<text transform="matrix(1 0 0 1 230.7197 185.4931)" class="st7 st8 st9">C</text>
		</g>
		<g style="clip-path:url(#SVGID_00000103944953288265776290000007918648507504550301_);">
			<text transform="matrix(1 0 0 1 230.7197 185.4931)" class="st10 st8 st9">C</text>
		</g>
		<g style="clip-path:url(#SVGID_00000103944953288265776290000007918648507504550301_);">
			<text transform="matrix(1 0 0 1 245.0859 185.4931)" class="st7 st8 st9">T</text>
		</g>
		<g style="clip-path:url(#SVGID_00000103944953288265776290000007918648507504550301_);">
			<text transform="matrix(1 0 0 1 245.0859 185.4931)" class="st10 st8 st9">T</text>
		</g>
		<path style="clip-path:url(#SVGID_00000103944953288265776290000007918648507504550301_);fill:#FFFFFF;" d="M147.7,120.3l-4,3.4
			l0.9-6.5l-4,5.6c-2.1-1.3-4.8-1.9-7.1-1.6c-3.2,0.4-6.2,2.3-9,3.7c-1.5,0.8-3,1.5-4.5,2.1c0,0,0,0,0,0l4.7,10
			c0.4,0.8,0,1.8-0.8,2.2c-0.2,0.1-0.5,0.2-0.7,0.2c-0.6,0-1.2-0.3-1.5-0.9l-4.7-10c0-0.1,0-0.2-0.1-0.3c-4.1,1.5-7.1,2.2-7.1,2.2
			c-0.6,0.1-1.2,0.2-1.8,0.3c0,0.1,0,0.1,0.1,0.2l2.1,12.2c0.2,0.9-0.4,1.7-1.3,1.9c-0.1,0-0.2,0-0.3,0c-0.8,0-1.5-0.6-1.6-1.4
			l-2.1-12.2c0-0.1,0-0.2,0-0.3c-2.3,0.3-4.6,0.5-6.8,0.5c-1.9,0-3.8-0.2-5.8-0.4v11c0,0.9-0.7,1.6-1.6,1.6c-0.9,0-1.6-0.7-1.6-1.6
			v-11.1c0-0.1,0-0.3,0.1-0.4c-1-0.1-1.9-0.3-2.9-0.5c0,0-3.3-0.8-7.7-2.4l-3.9,10.9c-0.2,0.7-0.9,1.1-1.5,1.1c-0.2,0-0.4,0-0.5-0.1
			c-0.8-0.3-1.3-1.2-1-2.1l3.9-11c-1.2-0.5-2.5-1.1-3.8-1.8c-2.8-1.4-5.8-3.3-9-3.7c-2.7-0.3-5.8,0.4-8,2.2l-4.6-4.9l1.7,6.4
			l-4.4-2.9l1.2,3.3l-4,0.5l3.8,3.7l-3.1,1.3c0,0,3.3,0.8,6.5,1.6c0,0.4,0.1,0.8,0.2,1.3c0.5,3.1,3.4,7.1,10.3,10.7
			c6.9,3.6,15.1,8.6,35.2,8.9c0.2,0,0.5,0,0.7,0h0h0c0.2,0,0.5,0,0.7,0c20.1-0.3,28.3-5.3,35.2-8.9c6.9-3.6,9.7-7.6,10.3-10.7
			c0.1-0.8,0.2-1.6,0.2-2.4c3.1-1.2,6.5-2.5,6.5-2.5l-3.2-0.9l3.3-4.2H147L147.7,120.3z"/>
		<path style="clip-path:url(#SVGID_00000103944953288265776290000007918648507504550301_);fill:#FFFFFF;" d="M100.3,82.8
			c0,0-8.4,4.1-4.8,12.3c3.8,8.6,0.3,16.3,0.3,16.3c1.6-1.5,2.6-3.8,3.2-5.8c0.7-2.5,0.6-4.9,0.4-7.4c-0.3-2.5-1.7-5-1.7-7.5
			C97.6,87.9,98.8,85.2,100.3,82.8"/>
		<path style="clip-path:url(#SVGID_00000103944953288265776290000007918648507504550301_);fill:#FFFFFF;" d="M108.8,93.6
			c0,0-5.9,2.9-3.6,9.2c2.3,6.2,0.2,12.2,0.2,12.2c1.2-1.1,2-2.8,2.4-4.4c0.5-1.8,0.5-3.7,0.3-5.5c-0.2-1.9-1.3-3.7-1.3-5.6
			C106.8,97.4,107.7,95.3,108.8,93.6"/>
		<path style="clip-path:url(#SVGID_00000103944953288265776290000007918648507504550301_);fill:#FFFFFF;" d="M91,93.6
			c0,0-6.4,3.1-3.6,9.2c2.9,6.3,0.2,12.2,0.2,12.2c1.2-1.1,2-2.8,2.4-4.4c0.5-1.8,0.5-3.7,0.3-5.5c-0.2-1.9-1.3-3.7-1.3-5.6
			C89,97.4,89.9,95.3,91,93.6"/>
		<path style="clip-path:url(#SVGID_00000103944953288265776290000007918648507504550301_);fill:#2B363D;" d="M239.4,141.2
			c32.7,0,59.2-26.5,59.2-59.2s-26.5-59.2-59.2-59.2S180.2,49.3,180.2,82S206.7,141.2,239.4,141.2"/>
		
			<path style="clip-path:url(#SVGID_00000103944953288265776290000007918648507504550301_);fill:none;stroke:#FF8A00;stroke-width:1.763;" d="
			M239.4,141.2c32.7,0,59.2-26.5,59.2-59.2s-26.5-59.2-59.2-59.2S180.2,49.3,180.2,82S206.7,141.2,239.4,141.2z"/>
	</g>
	<g style="clip-path:url(#SVGID_00000089572499596434472600000009502503679562618257_);">
		<defs>
			<rect id="SVGID_00000060001924574758734070000005515215507915690939_" x="135" y="0" width="193.8" height="144.6"/>
		</defs>
		<clipPath id="SVGID_00000076573043285466216610000008814990604755278489_">
			<use xlink:href="#SVGID_00000060001924574758734070000005515215507915690939_"  style="overflow:visible;"/>
		</clipPath>
		<g style="clip-path:url(#SVGID_00000076573043285466216610000008814990604755278489_);">
			<defs>
				<rect id="SVGID_00000078038848808944796860000017661314695688129214_" x="135" y="-1.2" width="194.8" height="145.8"/>
			</defs>
			<clipPath id="SVGID_00000165229844096586530980000004330087625610038195_">
				<use xlink:href="#SVGID_00000078038848808944796860000017661314695688129214_"  style="overflow:visible;"/>
			</clipPath>
			<g transform="matrix(1 0 0 1 0 0)" style="clip-path:url(#SVGID_00000165229844096586530980000004330087625610038195_);">
				
					<image style="overflow:visible;" width="930" height="696" xlink:href="DF4C0BA6B1AD9CA1.png"  transform="matrix(0.2095 0 0 0.2095 135.0162 -1.1554)">
				</image>
			</g>
		</g>
	</g>
</g>
</svg>
