<?xml version="1.0" encoding="utf-8"?>
<!-- Generator: Adobe Illustrator 26.0.2, SVG Export Plug-In . SVG Version: 6.00 Build 0)  -->
<svg version="1.1" id="Ebene_1" xmlns="http://www.w3.org/2000/svg" xmlns:xlink="http://www.w3.org/1999/xlink" x="0px" y="0px"
	 viewBox="0 0 828 199.5" style="enable-background:new 0 0 828 199.5;" xml:space="preserve">
<style type="text/css">
	.st0{clip-path:url(#SVGID_00000114070609188734827660000007877073800292467359_);}
	.st1{filter:url(#Adobe_OpacityMaskFilter);}
	.st2{clip-path:url(#SVGID_00000125560563577178464600000014039325153997541033_);}
	
		.st3{clip-path:url(#SVGID_00000125560563577178464600000014039325153997541033_);mask:url(#SVGID_00000078763697616210543020000000866420250405389984_);}
	.st4{opacity:0.75;clip-path:url(#SVGID_00000036940188784765279020000015333964273443009432_);}
	.st5{clip-path:url(#SVGID_00000125560563577178464600000014039325153997541033_);fill:#92CC18;}
	.st6{clip-path:url(#SVGID_00000003086216147147334880000003324361972313018278_);}
	.st7{fill:#FFFFFF;}
	.st8{font-family:'UnicaOne-Regular';}
	.st9{font-size:29.3182px;}
	.st10{fill:none;stroke:#FFFFFF;stroke-width:0.44;stroke-miterlimit:5.219;}
	.st11{clip-path:url(#SVGID_00000003086216147147334880000003324361972313018278_);fill:#FFFFFF;}
</style>
<g>
	<defs>
		<rect id="SVGID_1_" width="828" height="199.5"/>
	</defs>
	<clipPath id="SVGID_00000093874042814313265050000001050157480748592552_">
		<use xlink:href="#SVGID_1_"  style="overflow:visible;"/>
	</clipPath>
	<g style="clip-path:url(#SVGID_00000093874042814313265050000001050157480748592552_);">
		<defs>
			<rect id="SVGID_00000128445736660461998050000008869471685979699619_" width="828" height="199.5"/>
		</defs>
		<clipPath id="SVGID_00000173851729592411062770000002458572205445686669_">
			<use xlink:href="#SVGID_00000128445736660461998050000008869471685979699619_"  style="overflow:visible;"/>
		</clipPath>
		<defs>
			<filter id="Adobe_OpacityMaskFilter" filterUnits="userSpaceOnUse" x="-15" y="9.3" width="817" height="577">
				<feColorMatrix  type="matrix" values="1 0 0 0 0  0 1 0 0 0  0 0 1 0 0  0 0 0 1 0"/>
			</filter>
		</defs>
		
			<mask maskUnits="userSpaceOnUse" x="-15" y="9.3" width="817" height="577" id="SVGID_00000107548656834198365420000001990425029413346962_">
			<g class="st1">
				<g>
					<defs>
						<rect id="SVGID_00000100341148640215435420000000230791451685257897_" x="-43.3" y="0.2" width="873.6" height="589.4"/>
					</defs>
					
						<clipPath id="SVGID_00000177445739763194555050000007562448745421839534_" style="clip-path:url(#SVGID_00000173851729592411062770000002458572205445686669_);">
						<use xlink:href="#SVGID_00000100341148640215435420000000230791451685257897_"  style="overflow:visible;"/>
					</clipPath>
					<g style="clip-path:url(#SVGID_00000177445739763194555050000007562448745421839534_);">
						
							<image style="overflow:visible;" width="1820" height="1228" xlink:href="AA5B41381F0B3EE2.jpg"  transform="matrix(0.48 0 0 0.48 -43.3328 0.2236)">
						</image>
					</g>
				</g>
			</g>
		</mask>
		
			<g style="clip-path:url(#SVGID_00000173851729592411062770000002458572205445686669_);mask:url(#SVGID_00000107548656834198365420000001990425029413346962_);">
			<g>
				<defs>
					<rect id="SVGID_00000095329430140405756420000000096695331973930624_" x="-15" y="9.3" width="817" height="577"/>
				</defs>
				<clipPath id="SVGID_00000000924114188525366100000009371953222700091575_">
					<use xlink:href="#SVGID_00000095329430140405756420000000096695331973930624_"  style="overflow:visible;"/>
				</clipPath>
				
					<rect x="-15" y="9.3" style="opacity:0.75;clip-path:url(#SVGID_00000000924114188525366100000009371953222700091575_);" width="817" height="577"/>
			</g>
		</g>
		<path style="clip-path:url(#SVGID_00000173851729592411062770000002458572205445686669_);fill:#92CC18;" d="M-1.3,22.3
			c0,0,262.4,160.9,796,206.3l-1.2,353.3l-802.2-28l0.3-536.3L-1.3,22.3z"/>
	</g>
	<g style="clip-path:url(#SVGID_00000093874042814313265050000001050157480748592552_);">
		<defs>
			<rect id="SVGID_00000010302040450542415270000006950253443037133452_" width="828" height="199.5"/>
		</defs>
		<clipPath id="SVGID_00000124866246715095752530000001837522850724585893_">
			<use xlink:href="#SVGID_00000010302040450542415270000006950253443037133452_"  style="overflow:visible;"/>
		</clipPath>
		<g style="clip-path:url(#SVGID_00000124866246715095752530000001837522850724585893_);">
			<text transform="matrix(1 0 0 1 19.0552 184.4521)" class="st7 st8 st9">I</text>
		</g>
		<g style="clip-path:url(#SVGID_00000124866246715095752530000001837522850724585893_);">
			<text transform="matrix(1 0 0 1 19.0552 184.4521)" class="st10 st8 st9">I</text>
		</g>
		<g style="clip-path:url(#SVGID_00000124866246715095752530000001837522850724585893_);">
			<text transform="matrix(1 0 0 1 28.144 184.4521)" class="st7 st8 st9">T</text>
		</g>
		<g style="clip-path:url(#SVGID_00000124866246715095752530000001837522850724585893_);">
			<text transform="matrix(1 0 0 1 28.144 184.4521)" class="st10 st8 st9">T</text>
		</g>
		<g style="clip-path:url(#SVGID_00000124866246715095752530000001837522850724585893_);">
			<text transform="matrix(1 0 0 1 38.4053 184.4521)" class="st7 st8 st9">A</text>
		</g>
		<g style="clip-path:url(#SVGID_00000124866246715095752530000001837522850724585893_);">
			<text transform="matrix(1 0 0 1 38.4053 184.4521)" class="st10 st8 st9">A</text>
		</g>
		<g style="clip-path:url(#SVGID_00000124866246715095752530000001837522850724585893_);">
			<text transform="matrix(1 0 0 1 52.4487 184.4521)" class="st7 st8 st9">L</text>
		</g>
		<g style="clip-path:url(#SVGID_00000124866246715095752530000001837522850724585893_);">
			<text transform="matrix(1 0 0 1 52.4487 184.4521)" class="st10 st8 st9">L</text>
		</g>
		<g style="clip-path:url(#SVGID_00000124866246715095752530000001837522850724585893_);">
			<text transform="matrix(1 0 0 1 63.3848 184.4521)" class="st7 st8 st9">I</text>
		</g>
		<g style="clip-path:url(#SVGID_00000124866246715095752530000001837522850724585893_);">
			<text transform="matrix(1 0 0 1 63.3848 184.4521)" class="st10 st8 st9">I</text>
		</g>
		<g style="clip-path:url(#SVGID_00000124866246715095752530000001837522850724585893_);">
			<text transform="matrix(1 0 0 1 72.4731 184.4521)" class="st7 st8 st9">A</text>
		</g>
		<g style="clip-path:url(#SVGID_00000124866246715095752530000001837522850724585893_);">
			<text transform="matrix(1 0 0 1 72.4731 184.4521)" class="st10 st8 st9">A</text>
		</g>
		<g style="clip-path:url(#SVGID_00000124866246715095752530000001837522850724585893_);">
			<text transform="matrix(1 0 0 1 86.5166 184.4521)" class="st7 st8 st9">N</text>
		</g>
		<g style="clip-path:url(#SVGID_00000124866246715095752530000001837522850724585893_);">
			<text transform="matrix(1 0 0 1 86.5166 184.4521)" class="st10 st8 st9">N</text>
		</g>
		<g style="clip-path:url(#SVGID_00000124866246715095752530000001837522850724585893_);">
			<text transform="matrix(1 0 0 1 102.8472 184.4521)" class="st7 st8 st9"> </text>
		</g>
		<g style="clip-path:url(#SVGID_00000124866246715095752530000001837522850724585893_);">
			<text transform="matrix(1 0 0 1 102.8472 184.4521)" class="st10 st8 st9"> </text>
		</g>
		<g style="clip-path:url(#SVGID_00000124866246715095752530000001837522850724585893_);">
			<text transform="matrix(1 0 0 1 109.5903 184.4521)" class="st7 st8 st9">S</text>
		</g>
		<g style="clip-path:url(#SVGID_00000124866246715095752530000001837522850724585893_);">
			<text transform="matrix(1 0 0 1 109.5903 184.4521)" class="st10 st8 st9">S</text>
		</g>
		<g style="clip-path:url(#SVGID_00000124866246715095752530000001837522850724585893_);">
			<text transform="matrix(1 0 0 1 124.1904 184.4521)" class="st7 st8 st9">T</text>
		</g>
		<g style="clip-path:url(#SVGID_00000124866246715095752530000001837522850724585893_);">
			<text transform="matrix(1 0 0 1 124.1904 184.4521)" class="st10 st8 st9">T</text>
		</g>
		<g style="clip-path:url(#SVGID_00000124866246715095752530000001837522850724585893_);">
			<text transform="matrix(1 0 0 1 135.625 184.4521)" class="st7 st8 st9">Y</text>
		</g>
		<g style="clip-path:url(#SVGID_00000124866246715095752530000001837522850724585893_);">
			<text transform="matrix(1 0 0 1 135.625 184.4521)" class="st10 st8 st9">Y</text>
		</g>
		<g style="clip-path:url(#SVGID_00000124866246715095752530000001837522850724585893_);">
			<text transform="matrix(1 0 0 1 148.8179 184.4521)" class="st7 st8 st9">L</text>
		</g>
		<g style="clip-path:url(#SVGID_00000124866246715095752530000001837522850724585893_);">
			<text transform="matrix(1 0 0 1 148.8179 184.4521)" class="st10 st8 st9">L</text>
		</g>
		<g style="clip-path:url(#SVGID_00000124866246715095752530000001837522850724585893_);">
			<text transform="matrix(1 0 0 1 159.7539 184.4521)" class="st7 st8 st9">E</text>
		</g>
		<g style="clip-path:url(#SVGID_00000124866246715095752530000001837522850724585893_);">
			<text transform="matrix(1 0 0 1 159.7539 184.4521)" class="st10 st8 st9">E</text>
		</g>
		<path style="clip-path:url(#SVGID_00000124866246715095752530000001837522850724585893_);fill:#FFFFFF;" d="M79,107.5
			c-5.5-7.4-13.5-12.6-25.1-17.2C61.4,92.8,78,97.7,79,107.5 M83.2,110.1c0,0-2.7-10.6-12.1-16.8c-9.4-6.2-22.5-3.6-22.5-3.6
			s7.1,5.4,19.4,12.8C80.3,109.9,83.2,110.1,83.2,110.1"/>
		<path style="clip-path:url(#SVGID_00000124866246715095752530000001837522850724585893_);fill:#FFFFFF;" d="M56.6,103.3
			c2.1-0.7,3.5-0.3,3.8,0.7c0.3,0.9-0.6,2.9-2.7,2.7c-2.1-0.2-4.5,0.1-4.8-0.3C52.6,105.8,54.5,103.9,56.6,103.3 M59.1,117.8
			c5.8-1.8,8-6.3,6.7-10.5c-1.3-4.2-5.7-6.6-11.5-4.8c-5.8,1.8-10.8,7.2-9.5,11.4C46.1,118.1,53.3,119.6,59.1,117.8"/>
		<path style="clip-path:url(#SVGID_00000124866246715095752530000001837522850724585893_);fill:#FFFFFF;" d="M66.2,106
			c0.5,0.8,0.8,1.6,0.9,2.5c1.9-1.3,3.9-1.7,6.2-1.2c-0.4-0.4-0.8-0.8-1.3-1.2C70.1,105.6,68.1,105.7,66.2,106"/>
		<path style="clip-path:url(#SVGID_00000124866246715095752530000001837522850724585893_);fill:#FFFFFF;" d="M75.1,127.6
			c-2,1.4-3.8,3.4-4.4,3.2c-0.6-0.2-0.3-3.3,1-5.4c1.3-2.1,2.8-2.8,3.8-2.2C76.4,123.9,77,126.3,75.1,127.6 M82,123.3
			c-4.3-2.7-9.8-1.5-13.5,4.3c-3.7,5.9-4.2,14.2,0.1,16.9c4.3,2.7,11.6-1.3,15.3-7.2C87.7,131.5,86.3,126,82,123.3"/>
		<path style="clip-path:url(#SVGID_00000124866246715095752530000001837522850724585893_);fill:#FFFFFF;" d="M95.8,115.8
			c7.9-5.9,22.7,3.1,29.6,6.9C114.2,117.2,105,114.9,95.8,115.8 M111.6,112.1c-11-2.8-20.6,2.4-20.6,2.4s2.1,2,15.9,6.1
			c13.8,4.1,22.5,5.7,22.5,5.7S122.6,114.8,111.6,112.1"/>
		<path style="clip-path:url(#SVGID_00000124866246715095752530000001837522850724585893_);fill:#FFFFFF;" d="M81.9,114.1
			c-9.1,1.8-17.2,6.7-26.4,15.2C61,123.6,72.6,110.7,81.9,114.1 M86.8,115.8c0,0-5.1-7.7-16-3.5c-10.9,4.2-18.7,21.2-18.7,21.2
			s12.9-7.7,21.2-12.9C81.6,115.4,86.8,115.8,86.8,115.8"/>
		<path style="clip-path:url(#SVGID_00000124866246715095752530000001837522850724585893_);fill:#FFFFFF;" d="M92.7,129.3
			c-1,2.2-1.7,4.9-2.3,5c-0.6,0.1-1.9-2.7-1.8-5.2c0.1-2.5,1.1-3.8,2.2-3.8C91.9,125.4,93.7,127.1,92.7,129.3 M96.5,120.8
			c-5-0.2-9.3,3.5-9.6,10.5c-0.3,6.9,3.4,14.4,8.5,14.7c5,0.2,9.5-6.9,9.8-13.8C105.5,125.2,101.6,121,96.5,120.8"/>
		<path style="clip-path:url(#SVGID_00000124866246715095752530000001837522850724585893_);fill:#FFFFFF;" d="M81.8,121.9
			c0.4,0.3,0.8,0.6,1.2,0.9c2.9-3.9,6.4-6,10.5-2.3c0.6-0.1,1.2-0.2,1.8-0.3C97,120,86.4,111.7,81.8,121.9"/>
	</g>
</g>
</svg>
