<?xml version="1.0" encoding="utf-8"?>
<!-- Generator: Adobe Illustrator 26.0.2, SVG Export Plug-In . SVG Version: 6.00 Build 0)  -->
<svg version="1.1" id="Ebene_1" xmlns="http://www.w3.org/2000/svg" xmlns:xlink="http://www.w3.org/1999/xlink" x="0px" y="0px"
	 viewBox="0 0 828 199.5" style="enable-background:new 0 0 828 199.5;" xml:space="preserve">
<style type="text/css">
	.st0{clip-path:url(#SVGID_00000097481588865511025360000000393057399621835452_);}
	.st1{filter:url(#Adobe_OpacityMaskFilter);}
	.st2{clip-path:url(#SVGID_00000043440905241538008160000016776268713955093126_);}
	
		.st3{clip-path:url(#SVGID_00000043440905241538008160000016776268713955093126_);mask:url(#SVGID_00000110432285445075262960000012566461055023826585_);}
	.st4{opacity:0.75;clip-path:url(#SVGID_00000137839335854706600920000009197696823375509426_);}
	.st5{clip-path:url(#SVGID_00000043440905241538008160000016776268713955093126_);fill:#E60001;}
	.st6{clip-path:url(#SVGID_00000031901662182543330370000012177738818178946236_);}
	.st7{fill:#FFFFFF;}
	.st8{fill:none;stroke:#FFFFFF;stroke-width:0.44;stroke-miterlimit:5.219;}
	.st9{clip-path:url(#SVGID_00000031901662182543330370000012177738818178946236_);fill:#FFFFFF;}
</style>
<g>
	<defs>
		<rect id="SVGID_1_" width="828" height="199.5"/>
	</defs>
	<clipPath id="SVGID_00000178924705725996967040000017242762552904544688_">
		<use xlink:href="#SVGID_1_"  style="overflow:visible;"/>
	</clipPath>
	<g style="clip-path:url(#SVGID_00000178924705725996967040000017242762552904544688_);">
		<defs>
			<rect id="SVGID_00000069359157026464038960000011784301574622684043_" width="828" height="199.5"/>
		</defs>
		<clipPath id="SVGID_00000057143093063127138030000004278017699174286726_">
			<use xlink:href="#SVGID_00000069359157026464038960000011784301574622684043_"  style="overflow:visible;"/>
		</clipPath>
		<defs>
			<filter id="Adobe_OpacityMaskFilter" filterUnits="userSpaceOnUse" x="-15" y="9.3" width="817" height="577">
				<feColorMatrix  type="matrix" values="1 0 0 0 0  0 1 0 0 0  0 0 1 0 0  0 0 0 1 0"/>
			</filter>
		</defs>
		
			<mask maskUnits="userSpaceOnUse" x="-15" y="9.3" width="817" height="577" id="SVGID_00000026866808161429697560000011042415887744500624_">
			<g class="st1">
				<g>
					<defs>
						<rect id="SVGID_00000036232669184366176540000001618485789892328065_" x="-43.3" y="0.2" width="873.6" height="589.4"/>
					</defs>
					
						<clipPath id="SVGID_00000154394172536403699380000001071458349433580986_" style="clip-path:url(#SVGID_00000057143093063127138030000004278017699174286726_);">
						<use xlink:href="#SVGID_00000036232669184366176540000001618485789892328065_"  style="overflow:visible;"/>
					</clipPath>
					<g style="clip-path:url(#SVGID_00000154394172536403699380000001071458349433580986_);">
						
							<image style="overflow:visible;" width="1820" height="1228" xlink:href="11C941BEFFAF5A9E.jpg"  transform="matrix(0.48 0 0 0.48 -43.3328 0.2236)">
						</image>
					</g>
				</g>
			</g>
		</mask>
		
			<g style="clip-path:url(#SVGID_00000057143093063127138030000004278017699174286726_);mask:url(#SVGID_00000026866808161429697560000011042415887744500624_);">
			<g>
				<defs>
					<rect id="SVGID_00000098221594045052984470000013971834407417438911_" x="-15" y="9.3" width="817" height="577"/>
				</defs>
				<clipPath id="SVGID_00000132053693815272197650000016077339493988347790_">
					<use xlink:href="#SVGID_00000098221594045052984470000013971834407417438911_"  style="overflow:visible;"/>
				</clipPath>
				
					<rect x="-15" y="9.3" style="opacity:0.75;clip-path:url(#SVGID_00000132053693815272197650000016077339493988347790_);" width="817" height="577"/>
			</g>
		</g>
		<path style="clip-path:url(#SVGID_00000057143093063127138030000004278017699174286726_);fill:#E60001;" d="M-1.3,22.3
			c0,0,262.4,160.9,796,206.3l-1.2,353.3l-802.2-28l0.3-536.3L-1.3,22.3z"/>
	</g>
	<g style="clip-path:url(#SVGID_00000178924705725996967040000017242762552904544688_);">
		<defs>
			<rect id="SVGID_00000156562155856309320690000001902204124935292603_" width="828" height="199.5"/>
		</defs>
		<clipPath id="SVGID_00000030476836811772251230000013258900516578194623_">
			<use xlink:href="#SVGID_00000156562155856309320690000001902204124935292603_"  style="overflow:visible;"/>
		</clipPath>
		<g style="clip-path:url(#SVGID_00000030476836811772251230000013258900516578194623_);">
			<path class="st7" d="M22.3,176.5v-1.8h5.3v9.7h-0.9l-0.8-1.9c-0.4,0.7-0.9,1.3-1.6,1.7s-1.4,0.6-2.2,0.6c-2.8,0-4.3-1.4-4.3-4.1
				v-11.7c0-1.3,0.4-2.3,1.2-3c0.8-0.7,2-1.1,3.6-1.1c1.6,0,2.8,0.4,3.6,1.1c0.8,0.7,1.2,1.7,1.2,3v1.6h-2.1v-1.6
				c0-1.6-0.9-2.3-2.8-2.3c-1.9,0-2.8,0.8-2.8,2.3v11.7c0,0.7,0.2,1.3,0.5,1.7c0.3,0.4,0.9,0.6,1.7,0.6c0.8,0,1.6-0.3,2.3-1
				c0.7-0.7,1.1-1.3,1.1-1.9v-3.7H22.3z"/>
		</g>
		<g style="clip-path:url(#SVGID_00000030476836811772251230000013258900516578194623_);">
			<path class="st8" d="M22.3,176.5v-1.8h5.3v9.7h-0.9l-0.8-1.9c-0.4,0.7-0.9,1.3-1.6,1.7s-1.4,0.6-2.2,0.6c-2.8,0-4.3-1.4-4.3-4.1
				v-11.7c0-1.3,0.4-2.3,1.2-3c0.8-0.7,2-1.1,3.6-1.1c1.6,0,2.8,0.4,3.6,1.1c0.8,0.7,1.2,1.7,1.2,3v1.6h-2.1v-1.6
				c0-1.6-0.9-2.3-2.8-2.3c-1.9,0-2.8,0.8-2.8,2.3v11.7c0,0.7,0.2,1.3,0.5,1.7c0.3,0.4,0.9,0.6,1.7,0.6c0.8,0,1.6-0.3,2.3-1
				c0.7-0.7,1.1-1.3,1.1-1.9v-3.7H22.3z"/>
		</g>
		<g style="clip-path:url(#SVGID_00000030476836811772251230000013258900516578194623_);">
			<path class="st7" d="M41.7,184.5H33v-19.1h8.4v1.8h-6.3v6.7h5.1v1.8h-5.1v7h6.6V184.5z"/>
		</g>
		<g style="clip-path:url(#SVGID_00000030476836811772251230000013258900516578194623_);">
			<path class="st8" d="M41.7,184.5H33v-19.1h8.4v1.8h-6.3v6.7h5.1v1.8h-5.1v7h6.6V184.5z"/>
		</g>
		<g style="clip-path:url(#SVGID_00000030476836811772251230000013258900516578194623_);">
			<path class="st7" d="M48.1,184.5h-2.1v-19.1h4.4c1.5,0,2.7,0.4,3.5,1.1c0.8,0.7,1.2,1.7,1.2,3v4.1c0,2-0.9,3.3-2.6,3.8l3.6,7
				h-2.3l-3.4-6.7h-2.4V184.5z M53.1,173.6v-4.1c0-0.7-0.2-1.3-0.7-1.7c-0.4-0.4-1.1-0.6-1.9-0.6h-2.4v8.8h2.4
				C52.2,176,53.1,175.2,53.1,173.6z"/>
		</g>
		<g style="clip-path:url(#SVGID_00000030476836811772251230000013258900516578194623_);">
			<path class="st8" d="M48.1,184.5h-2.1v-19.1h4.4c1.5,0,2.7,0.4,3.5,1.1c0.8,0.7,1.2,1.7,1.2,3v4.1c0,2-0.9,3.3-2.6,3.8l3.6,7
				h-2.3l-3.4-6.7h-2.4V184.5z M53.1,173.6v-4.1c0-0.7-0.2-1.3-0.7-1.7c-0.4-0.4-1.1-0.6-1.9-0.6h-2.4v8.8h2.4
				C52.2,176,53.1,175.2,53.1,173.6z"/>
		</g>
		<g style="clip-path:url(#SVGID_00000030476836811772251230000013258900516578194623_);">
			<path class="st7" d="M62.3,184.5h-2.1v-19.1h3.1l3.3,12.6l3.4-12.6h3.1v19.1h-2.1v-15.8l-3.4,12.8h-1.9l-3.4-12.8V184.5z"/>
		</g>
		<g style="clip-path:url(#SVGID_00000030476836811772251230000013258900516578194623_);">
			<path class="st8" d="M62.3,184.5h-2.1v-19.1h3.1l3.3,12.6l3.4-12.6h3.1v19.1h-2.1v-15.8l-3.4,12.8h-1.9l-3.4-12.8V184.5z"/>
		</g>
		<g style="clip-path:url(#SVGID_00000030476836811772251230000013258900516578194623_);">
			<path class="st7" d="M81.6,165.4h3.1l4.3,19.1h-2.1l-1-4.4h-5.6l-1,4.4h-2.1L81.6,165.4z M83.1,167.7l-2.4,10.6h4.8L83.1,167.7z"
				/>
		</g>
		<g style="clip-path:url(#SVGID_00000030476836811772251230000013258900516578194623_);">
			<path class="st8" d="M81.6,165.4h3.1l4.3,19.1h-2.1l-1-4.4h-5.6l-1,4.4h-2.1L81.6,165.4z M83.1,167.7l-2.4,10.6h4.8L83.1,167.7z"
				/>
		</g>
		<g style="clip-path:url(#SVGID_00000030476836811772251230000013258900516578194623_);">
			<path class="st7" d="M95.1,184.5h-2.1v-19.1h2.1l6.4,14.7v-14.7h2.1v19.1h-2.1l-6.4-14.7V184.5z"/>
		</g>
		<g style="clip-path:url(#SVGID_00000030476836811772251230000013258900516578194623_);">
			<path class="st8" d="M95.1,184.5h-2.1v-19.1h2.1l6.4,14.7v-14.7h2.1v19.1h-2.1l-6.4-14.7V184.5z"/>
		</g>
		<g style="clip-path:url(#SVGID_00000030476836811772251230000013258900516578194623_);">
			<path class="st7" d="M125.5,180.8c0,2.7-1.7,4.1-5,4.1c-3.3,0-5-1.4-5-4.1v-2.5h2.1v2.6c0,0.7,0.2,1.3,0.7,1.6
				c0.5,0.4,1.2,0.6,2.2,0.6c1,0,1.7-0.2,2.2-0.6c0.5-0.4,0.7-0.9,0.7-1.6c0-0.7-0.1-1.2-0.2-1.6c-0.1-0.4-0.4-0.8-0.9-1.3l-5.2-5
				c-0.6-0.6-1-1.2-1.2-1.8c-0.2-0.6-0.3-1.3-0.3-2.2c0-1.3,0.4-2.3,1.2-3c0.8-0.7,2-1.1,3.7-1.1c3.1,0,4.7,1.4,4.7,4.1v2.5h-2.1
				v-2.6c0-0.7-0.2-1.2-0.7-1.6c-0.5-0.4-1.1-0.6-2.1-0.6c-0.9,0-1.6,0.2-2.1,0.6c-0.5,0.4-0.7,0.9-0.7,1.6c0,0.7,0.1,1.2,0.2,1.6
				c0.1,0.4,0.4,0.8,0.9,1.2l5.2,5c0.6,0.6,1,1.2,1.2,1.8C125.4,179.2,125.5,179.9,125.5,180.8z"/>
		</g>
		<g style="clip-path:url(#SVGID_00000030476836811772251230000013258900516578194623_);">
			<path class="st8" d="M125.5,180.8c0,2.7-1.7,4.1-5,4.1c-3.3,0-5-1.4-5-4.1v-2.5h2.1v2.6c0,0.7,0.2,1.3,0.7,1.6
				c0.5,0.4,1.2,0.6,2.2,0.6c1,0,1.7-0.2,2.2-0.6c0.5-0.4,0.7-0.9,0.7-1.6c0-0.7-0.1-1.2-0.2-1.6c-0.1-0.4-0.4-0.8-0.9-1.3l-5.2-5
				c-0.6-0.6-1-1.2-1.2-1.8c-0.2-0.6-0.3-1.3-0.3-2.2c0-1.3,0.4-2.3,1.2-3c0.8-0.7,2-1.1,3.7-1.1c3.1,0,4.7,1.4,4.7,4.1v2.5h-2.1
				v-2.6c0-0.7-0.2-1.2-0.7-1.6c-0.5-0.4-1.1-0.6-2.1-0.6c-0.9,0-1.6,0.2-2.1,0.6c-0.5,0.4-0.7,0.9-0.7,1.6c0,0.7,0.1,1.2,0.2,1.6
				c0.1,0.4,0.4,0.8,0.9,1.2l5.2,5c0.6,0.6,1,1.2,1.2,1.8C125.4,179.2,125.5,179.9,125.5,180.8z"/>
		</g>
		<g style="clip-path:url(#SVGID_00000030476836811772251230000013258900516578194623_);">
			<path class="st7" d="M138.4,165.4v1.8h-3.8v17.3h-2.1v-17.3h-3.8v-1.8H138.4z"/>
		</g>
		<g style="clip-path:url(#SVGID_00000030476836811772251230000013258900516578194623_);">
			<path class="st8" d="M138.4,165.4v1.8h-3.8v17.3h-2.1v-17.3h-3.8v-1.8H138.4z"/>
		</g>
		<g style="clip-path:url(#SVGID_00000030476836811772251230000013258900516578194623_);">
			<path class="st7" d="M146.9,184.5h-2.1v-6.8l-4.8-12.2h2.2l3.7,9.8l3.7-9.8h2.2l-4.8,12.3V184.5z"/>
		</g>
		<g style="clip-path:url(#SVGID_00000030476836811772251230000013258900516578194623_);">
			<path class="st8" d="M146.9,184.5h-2.1v-6.8l-4.8-12.2h2.2l3.7,9.8l3.7-9.8h2.2l-4.8,12.3V184.5z"/>
		</g>
		<g style="clip-path:url(#SVGID_00000030476836811772251230000013258900516578194623_);">
			<path class="st7" d="M155.4,184.5v-19.1h2.1v17.3h5.4v1.8H155.4z"/>
		</g>
		<g style="clip-path:url(#SVGID_00000030476836811772251230000013258900516578194623_);">
			<path class="st8" d="M155.4,184.5v-19.1h2.1v17.3h5.4v1.8H155.4z"/>
		</g>
		<g style="clip-path:url(#SVGID_00000030476836811772251230000013258900516578194623_);">
			<path class="st7" d="M175,184.5h-8.6v-19.1h8.4v1.8h-6.3v6.7h5.1v1.8h-5.1v7h6.6V184.5z"/>
		</g>
		<g style="clip-path:url(#SVGID_00000030476836811772251230000013258900516578194623_);">
			<path class="st8" d="M175,184.5h-8.6v-19.1h8.4v1.8h-6.3v6.7h5.1v1.8h-5.1v7h6.6V184.5z"/>
		</g>
		<path style="clip-path:url(#SVGID_00000030476836811772251230000013258900516578194623_);fill:#FFFFFF;" d="M75.4,117.7
			c2.2-2.4,4.7-4.3,7.6-5.5c2.9-1.2,6.2-1.7,10-1.4c0.9,0.1,1.6-0.6,1.7-1.5c0.1-0.9-0.6-1.6-1.5-1.7c-4.3-0.3-8.1,0.3-11.5,1.7
			c-3.4,1.4-6.3,3.5-8.8,6.3c-0.6,0.6-0.5,1.7,0.1,2.2C73.8,118.4,74.8,118.4,75.4,117.7 M51,135.5h87.2c-3.2,5.9-7.7,10.1-13,13
			H63.4C58.3,146,54.3,142.1,51,135.5 M64.4,149.8H124v2.4H64.4V149.8z M94.4,103.2c3,0,6,0.4,8.7,1c-7.3,4.8-6.8,12.2-3.9,18.6l0,0
			l0,0.1l0,0l0,0l0,0l0,0l0,0l0,0l0,0l0,0l0,0l0,0l0,0l0,0l0,0.1l0,0l0,0l0,0l0,0l0,0l0,0l0,0l0,0l0,0l0,0l0,0l0,0.1l0,0l0,0l0,0
			l0,0l0,0l0,0l0,0v0l0,0.1l0,0l0,0l0,0l0,0l0,0l0,0l0,0l0,0l0,0l0,0l0,0l0,0l0.1,0.2l0,0l0,0l0,0l0.1,0.3l-0.1-0.3l0-0.1l-0.1-0.3
			l0,0l0,0v0l-0.1-0.3l0,0l0,0l-0.1-0.3l0,0l0,0l-0.1-0.3l0-0.1l0,0l-0.1-0.3l0,0v0l-0.1-0.3l0,0l0,0l-0.1-0.2l0-0.1l0-0.1l-0.1-0.3
			l0,0l0-0.1l0-0.1l0-0.1l0-0.1l0-0.1l0-0.1l0-0.1l0-0.1l0,0l0-0.1l0-0.1l0,0l0-0.1l0-0.3l0-0.1l0-0.2l0-0.1l0-0.3l0-0.1l0-0.3
			l0-0.1l0-0.1v0c-0.8-6.5,1.4-12.4,8.4-14.5c7.7-0.8,18.7,4.6,24.3,2.5l0-0.1c0,0,0.3-6.5,3.5-7.4c3.2-0.9,2.5,6.2,2.5,6.2
			s7.4,4,4.2,6.8c-2.8,2.5-7.7-0.1-8.7-0.7c-6.7,4.4-19.2,17.4-26.8,15.8c6.9,2.5,12-1.2,18-4.8c0.4,1.5,0.6,3.1,0.6,4.7
			c0,1.7-0.2,3.4-0.6,5H64.1c-4.1-1.2-6.3-6.4-4.6-10.7l4.7,1.6C66.6,112.1,79.2,103.2,94.4,103.2"/>
	</g>
</g>
</svg>
